<?xml version="1.0" encoding="utf-8"?>
<!-- Generator: Adobe Illustrator 24.1.0, SVG Export Plug-In . SVG Version: 6.00 Build 0)  -->
<svg version="1.1" xmlns="http://www.w3.org/2000/svg" xmlns:xlink="http://www.w3.org/1999/xlink" x="0px" y="0px"
	 viewBox="0 0 25 25" style="enable-background:new 0 0 25 25;" xml:space="preserve">
<style type="text/css">
	.st0{fill:#1A1A1A;}
</style>
<g id="Layer_1">
	<g id="Group_5616_2_" transform="translate(-113.639 -58.638)">
		<path id="Path_55263_2_" class="st0" d="M117,58.6v5.7c0,0,0.1,0.1,0.1,0.1c3.1,2,6.2,4.1,9.3,6.1c0.7,0.5,0.7,0.6,0,1.1
			c-3.1,2.1-6.3,4.2-9.4,6.4l0,0v5.6c0.1,0,0.2-0.1,0.4-0.2c5.8-4,11.5-8,17.3-12c0.2-0.1,0.4-0.3,0.7-0.6L117,58.6z"/>
		<path id="Path_55264_2_" class="st0" d="M117,65.1v12.1l9.1-6.2L117,65.1z"/>
	</g>
</g>
<g id="Layer_2">
</g>
</svg>
