<?xml version="1.0" encoding="utf-8"?>
<!-- Generator: Adobe Illustrator 24.1.0, SVG Export Plug-In . SVG Version: 6.00 Build 0)  -->
<svg version="1.1" id="Layer_1" xmlns="http://www.w3.org/2000/svg" xmlns:xlink="http://www.w3.org/1999/xlink" x="0px" y="0px"
	 viewBox="0 0 150 150" style="enable-background:new 0 0 150 150;" xml:space="preserve">
<style type="text/css">
	.st0{fill:#FFFFFF;}
	.st1{fill:#0F4599;}
	.st2{fill:#BAE2FF;}
	.st3{fill:#1480CC;}
	.st4{fill:#EBF3FF;}
	.st5{opacity:0.7;fill:#D1D1D1;enable-background:new    ;}
	.st6{fill:#E3EEFF;}
	.st7{opacity:0.7;}
	.st8{fill:#A3A3A3;}
	.st9{fill:#EBEBEB;}
	.st10{opacity:0.5;enable-background:new    ;}
	.st11{fill:#D1D1D1;}
	.st12{fill:#2475B3;}
	.st13{fill:#3F9EE6;}
	.st14{fill:#61B3F2;}
	.st15{fill:#1A5380;}
	.st16{fill:#666666;}
	.st17{fill:#4582E6;}
	.st18{fill:#3D73CC;}
	.st19{fill:url(#SVGID_1_);}
	.st20{fill:url(#SVGID_2_);}
	.st21{fill:url(#SVGID_3_);}
	.st22{fill:url(#SVGID_4_);}
	.st23{fill:url(#SVGID_5_);}
	.st24{fill:#DF2827;}
	.st25{fill:url(#SVGID_6_);}
	.st26{fill:url(#SVGID_7_);}
	.st27{fill:#F9B08C;}
	.st28{fill:#FFBE97;}
	.st29{fill:#002E73;}
	.st30{fill:url(#SVGID_8_);}
	.st31{fill:url(#SVGID_9_);}
	.st32{fill:url(#SVGID_10_);}
	.st33{fill:#D9FFFF;}
	.st34{fill:#66B8FF;}
</style>
<g id="Background">
</g>
<g>
	<g>
		<path class="st0" d="M92.5,49.5v-5.4c0-2.4,2-4.4,4.4-4.4h47c2.4,0,4.4,2,4.4,4.4V139H26.8V49.5H92.5z"/>
		<path class="st1" d="M92.1,49.5v-5.4c0-2.4,2-4.4,4.4-4.4h47c2.4,0,4.4,2,4.4,4.4V139H26.4V49.5H92.1z"/>
		<polygon class="st2" points="143.8,53.2 143.8,139 31.3,139 31.3,52.8 		"/>
		<polygon class="st3" points="137.6,53.2 137.6,139 25.1,139 25.1,52.8 		"/>
		<path d="M20.6,49.5h111.2c2.3,0,4,1.5,4.3,3.7V139H14.7V55.4C14.7,52.3,17.5,49.5,20.6,49.5z"/>
		<g>
			<g>
				
					<rect x="69.2" y="24.2" transform="matrix(2.800568e-03 -1 1 2.800568e-03 36.9457 150.5022)" class="st4" width="49.4" height="65"/>
				
					<rect x="71.3" y="25.6" transform="matrix(2.800548e-03 -1 1 2.800548e-03 37.3751 150.2106)" class="st5" width="45.4" height="61.6"/>
				<polygon class="st6" points="119.5,75.5 79.9,75.4 101.6,54.6 				"/>
				<polygon class="st6" points="101.5,75.5 68.2,75.4 86.3,58.2 				"/>
				<circle class="st6" cx="89.2" cy="50" r="4.6"/>
			</g>
		</g>
		<g>
			<g>
				
					<rect x="56.7" y="19.2" transform="matrix(3.204674e-03 -1 1 3.204674e-03 33.3508 132.0669)" class="st4" width="52.4" height="60.2"/>
				
					<rect x="58.9" y="20.5" transform="matrix(3.223732e-03 -1 1 3.223732e-03 33.8268 131.7304)" class="st5" width="48.2" height="56.8"/>
			</g>
			<g class="st7">
				<rect x="83.2" y="31.6" class="st8" width="22.6" height="2"/>
				<rect x="59.9" y="36.9" class="st8" width="46" height="2"/>
				<rect x="59.9" y="42.5" class="st8" width="46" height="2"/>
			</g>
		</g>
		<path class="st9" d="M20.1,49.5h111.2c2.3,0,4,1.5,4.3,3.7v86.1H14.2V55.4C14.2,52.3,16.9,49.5,20.1,49.5z"/>
		<rect x="136.1" y="138.5" class="st0" width="12.2" height="0.5"/>
		<polygon class="st10" points="148.3,85.8 143.8,88.7 137.9,88.7 136,90.2 136,88.8 14.7,88.8 14.7,85.8 		"/>
		<g class="st7">
			<g>
				<rect x="12.3" y="71.5" class="st11" width="137.7" height="15.6"/>
				<rect x="12.3" y="71.5" class="st11" width="125.3" height="15.6"/>
			</g>
		</g>
		<g>
			<g>
				<g>
					<path class="st12" d="M99.2,79.3c0,2.2,0.4,4.1,1,5.5s1.5,2.3,2.4,2.3h2.9V71.6h-2.9C100.7,71.6,99.2,75.1,99.2,79.3z
						 M101.9,81.9c-0.5-0.2-1-1.2-1-2.6c0-1.3,0.4-2.4,1-2.5c0.5,0.2,1,1.2,1,2.5C102.9,80.7,102.5,81.7,101.9,81.9z"/>
					<g>
						<path class="st13" d="M100.7,79.3c0,2.2,0.4,4.1,1.1,5.5c0.6,1.4,1.5,2.3,2.5,2.3h1.3V71.6h-1.3
							C102.3,71.6,100.7,75.1,100.7,79.3z M102,79.3c0-1.3,0.8-2.4,1.4-2.5c0.6,0.2,1,1.2,1,2.5s-0.4,2.4-1,2.6
							C102.9,81.7,102,80.7,102,79.3z"/>
					</g>
				</g>
				<g>
					<path class="st12" d="M100.6,79.3c0,2.2,0.4,4.1,1,5.5s1.5,2.3,2.4,2.3h2.9V71.6H104C102.1,71.6,100.6,75.1,100.6,79.3z
						 M103.3,81.9c-0.5-0.2-1-1.2-1-2.6c0-1.3,0.4-2.4,1-2.5c0.5,0.2,1,1.2,1,2.5C104.3,80.7,103.8,81.7,103.3,81.9z"/>
					<g>
						<path class="st14" d="M102,79.3c0,2.2,0.4,4.1,1.1,5.5c0.6,1.4,1.5,2.3,2.5,2.3h1.3V71.6h-1.3C103.6,71.6,102,75.1,102,79.3z
							 M103.4,79.3c0-1.3,0.4-2.4,1-2.5c0.6,0.2,1,1.2,1,2.5s-0.4,2.4-1,2.6C103.9,81.7,103.4,80.7,103.4,79.3z"/>
					</g>
					<path class="st15" d="M104,87.2c-0.1,0-0.8,0-1.6-0.7c-0.8-0.8-1.9-2.6-1.9-6.8c0-3.9,0.9-6,1.7-7c0.8-1.1,1.7-1.3,1.7-1.3
						c0.1,0,0.1,0,0.1,0.1s0,0.1-0.1,0.1l0,0c0,0-0.8,0.2-1.6,1.2c-0.7,1-1.6,3-1.6,6.8c0,4,1,5.8,1.8,6.6C103.3,87,104,87,104,87
						C104.1,87,104.1,87,104,87.2C104.1,87.2,104.1,87.2,104,87.2L104,87.2z"/>
				</g>
			</g>
			<path class="st1" d="M104.4,81.7c0.1,0,0.2,0.1,0.4,0.1l0,0c5.5,1.6,9.6,6.7,9.6,12.7v13h4.4v-13c0-8.4-5.9-15.5-13.8-17.2
				c-0.2-0.1-0.3-0.1-0.5-0.1C103.2,76.9,103.1,81.5,104.4,81.7z"/>
			<path class="st1" d="M99.3,77v4.4c-5.6,0.7-10.2,4.9-11.4,10.4c0,0.1-0.1,0.2-0.1,0.3c-0.1,0.3-0.1,0.6-0.1,0.9
				c-0.1,0.5-0.1,1.1-0.1,1.6v13h-4.3v-13C83.2,85.4,90.3,77.9,99.3,77z"/>
			<path class="st16" d="M104.4,81.7c0.1,0,0.2,0.1,0.4,0.1c-0.1-0.3-0.7-0.9-0.7-2.2c-0.1-1.3,0.4-2.2,0.9-2.3
				c-0.2-0.1-0.3-0.1-0.5-0.1C103.2,76.9,103.1,81.5,104.4,81.7z"/>
			<rect x="79.4" y="104" class="st1" width="43.1" height="35.2"/>
			<path class="st11" d="M101.6,112.7c-0.1,0-0.3,0-0.4,0c-2.9,0-5.3,2.4-5.3,5.3c0,2.2,1.3,4,3.1,4.9v9.1c0,1.2,1,2.2,2.2,2.2
				c0.1,0,0.2,0,0.3,0h0.1c1-0.2,1.7-1.1,1.7-2.2v-9.1c1.8-0.8,3.1-2.7,3.1-4.9C106.5,115.2,104.4,112.9,101.6,112.7z"/>
			<path class="st9" d="M101.6,112.7c-2.8,0.2-5,2.5-5,5.3c0,2.2,1.3,4,3.1,4.9v9.1c0,1.1,0.8,2,1.7,2.2h0.1c1-0.2,1.7-1.1,1.7-2.2
				v-9.1c1.8-0.8,3.1-2.7,3.1-4.9C106.5,115.2,104.4,112.9,101.6,112.7z"/>
		</g>
	</g>
	<g>
		<g>
			<path class="st17" d="M68.8,106.6c0,0-4.4-0.1-8.8,0.1c-4.5,0.2-9,0.8-8.4,2.4c0.1,0.4,0.2,0.7,0.1,1c-0.9,4.2-17.4,7.3-21.1,4.7
				c-2.7-1.9-10.2,0.5-13.3,1.9c-5.8-39.1-6-79.1-0.8-81.9C21.7,32,36,35.5,36,35.5s7.3,1.9,10.2,21.8
				C49.3,77.2,68.8,106.6,68.8,106.6z"/>
			<path class="st18" d="M51.7,109c0.1,0.4,0.2,0.7,0.1,1c-4.5-13.6-15-52.6-11.2-42c3.7,10.2,15.2,31,19.4,38.6
				C55.5,106.9,51,107.5,51.7,109z"/>
			<g>
				<g>
					<g>
						<g>
							
								<linearGradient id="SVGID_1_" gradientUnits="userSpaceOnUse" x1="1.206132e-02" y1="101.9411" x2="21.3182" y2="101.9411" gradientTransform="matrix(1 0 0 -1 0 152)">
								<stop  offset="0" style="stop-color:#3054D4"/>
								<stop  offset="1" style="stop-color:#062684"/>
							</linearGradient>
							<path class="st19" d="M16,45.1c-4.3,5.2-5,6.5-9,6.7c1.3,0.8,2.1,2,2.7,3.2l0,0c1.2,2.6,1.3,5.6,3.4,7.2l-2.4,2.4L10,65.3
								c0,0-0.1-0.1-0.2-0.2c-1.1-1-5.3-5-7.8-8.7c-1.5-2.1-2.4-4.1-1.8-5.4c1-3.7,3.6-11.2,10.2-13.5c4.3-4.7,8.6-2.2,10.1-0.2
								C22.6,40,20.5,45.6,16,45.1z"/>
							
								<linearGradient id="SVGID_2_" gradientUnits="userSpaceOnUse" x1="1.9572" y1="91.9" x2="13.1048" y2="91.9" gradientTransform="matrix(1 0 0 -1 0 152)">
								<stop  offset="0" style="stop-color:#3054D4"/>
								<stop  offset="1" style="stop-color:#062684"/>
							</linearGradient>
							<path class="st20" d="M13.1,62.3l-2.4,2.4l-0.9,0.4c-1-0.9-4.8-4.5-7.4-8c-0.2-0.2-0.3-0.4-0.5-0.6c1.3,0,5.3-0.1,7.8-1.4
								l0,0c0.1,0.2,0.2,0.4,0.3,0.7C10.9,58.1,11.2,60.8,13.1,62.3z"/>
							
								<linearGradient id="SVGID_3_" gradientUnits="userSpaceOnUse" x1="1.9572" y1="95.8546" x2="9.996" y2="95.8546" gradientTransform="matrix(1 0 0 -1 0 152)">
								<stop  offset="0" style="stop-color:#3054D4"/>
								<stop  offset="1" style="stop-color:#062684"/>
							</linearGradient>
							<path class="st21" d="M10,55.7c-2.7,1.6-5.8,1.6-7.6,1.4c-0.2-0.2-0.3-0.4-0.5-0.6c1.3,0,5.3-0.1,7.8-1.4l0,0
								C9.8,55.3,9.9,55.5,10,55.7z"/>
						</g>
						
							<linearGradient id="SVGID_4_" gradientUnits="userSpaceOnUse" x1="8.2243" y1="88.2059" x2="15.7716" y2="88.2059" gradientTransform="matrix(1 0 0 -1 0 152)">
							<stop  offset="0" style="stop-color:#3054D4"/>
							<stop  offset="1" style="stop-color:#062684"/>
						</linearGradient>
						<path class="st22" d="M11.3,60.1c0,0,2.8,0.3,3.6,1c0.7,0.6,0.3,1.4,0.3,1.4c1.5,0.8,0,4.1-2.6,4.9s-4.3-4.1-4.3-4.1
							S8.6,60.2,11.3,60.1z"/>
					</g>
				</g>
				<g>
					<path d="M46.4,139.4H37c-0.2-0.1-0.3-0.2-0.4-0.4c-0.5-7-1.2-10.4-1.2-10.4l6.6-0.3l1.5,5.2C45.6,135.1,48.3,138.3,46.4,139.4z
						"/>
					<path d="M36.3,139.6h11.2c0.3,0,0.2-1.6-0.1-1.6l-11.1,0.1C35.9,138.1,36,139.6,36.3,139.6z"/>
				</g>
				
					<linearGradient id="SVGID_5_" gradientUnits="userSpaceOnUse" x1="19.2943" y1="57.8548" x2="42.5888" y2="57.8548" gradientTransform="matrix(1 0 0 -1 0 152)">
					<stop  offset="0" style="stop-color:#3054D4"/>
					<stop  offset="1" style="stop-color:#062684"/>
				</linearGradient>
				<path class="st23" d="M32.4,64.6c1.5,4.1,8,23,6.2,36.5c2.6,9,1.8,16.7,4.1,29.9l-6.7,0.4c-2.7-16.1-5.7-13-6.6-28.9
					C23.9,90,21,78.2,19.5,66C18,56.7,29.3,51.9,32.4,64.6z"/>
				<path d="M35.9,132c0,0-0.5-4.8-3.7-13.9c-1-2.8-1.5-4.7-1.8-5.8c-0.3-1.2-0.3-1.6-0.3-1.6c1.7-1.9,3.8-4.8,5.7-8.3
					c2.1,3.2,4.5,6.4,4.5,6.4s0.1,0.8,0.2,2c0.5,5.2,1.8,18.9,2.6,21.8C44.1,136.1,37.9,138.1,35.9,132z"/>
				<path class="st24" d="M40.5,110.8c-1.1-1.2-3-3.4-4.6-5.9c-0.7,2.7-3.8,5.9-5.4,7.4c-0.3-1.2-0.3-1.6-0.3-1.6
					c1.7-1.9,3.8-4.8,5.7-8.3c2.1,3.2,4.5,6.4,4.5,6.4S40.4,109.5,40.5,110.8z"/>
				
					<linearGradient id="SVGID_6_" gradientUnits="userSpaceOnUse" x1="8.4424" y1="57.4931" x2="24.4664" y2="57.4931" gradientTransform="matrix(1 0 0 -1 0 152)">
					<stop  offset="0" style="stop-color:#3054D4"/>
					<stop  offset="1" style="stop-color:#062684"/>
				</linearGradient>
				<path class="st25" d="M24.4,66.3c-0.5,17.9-3.7,33.1-3.7,33.1c1.4,12.2-1.7,14.5-3.1,32l-6.1-0.1c0-7.1-0.4-15.9-0.9-30.1
					c-3.8-14.9-2-25.8-0.6-34.7C11.7,56.4,25.4,53.1,24.4,66.3z"/>
				<path d="M17.6,131.5c0.5,2.9,0.9,5.2,0.7,7.8l-14.7,0.3c0,0-1.5-1.4,0.4-3.5c1.8-2.1,5.3-0.9,7.5-4.6H17.6z"/>
				<path d="M3,139.6h15.6c0.3,0,0.2-1.6-0.1-1.6L3,138.1C2.7,138.1,2.7,139.6,3,139.6z"/>
				<path d="M20.6,111.7c0,0-0.1,0.5-0.3,1.4c-0.7,3.9-2.7,14.6-2.5,19.5c-2.8,3.3-6.3-0.4-6.3-0.4L10,105.6l-0.1-1.8
					C13.8,108.1,17.8,110.4,20.6,111.7z"/>
				<path class="st24" d="M20.6,111.7c0,0-0.1,0.5-0.3,1.4c-5.4-1.6-8.7-5.2-10.3-7.5l-0.1-1.8C13.8,108.1,17.8,110.4,20.6,111.7z"
					/>
				
					<linearGradient id="SVGID_7_" gradientUnits="userSpaceOnUse" x1="10.21" y1="101.3763" x2="39.7909" y2="101.3763" gradientTransform="matrix(1 0 0 -1 0 152)">
					<stop  offset="0" style="stop-color:#3054D4"/>
					<stop  offset="1" style="stop-color:#062684"/>
				</linearGradient>
				<path class="st26" d="M10.6,65.5c0,3.1,22,2.2,22-0.9c-0.1-5.1,0.6-9.3,1.6-12.8c6.6-6.5,6.2-11.5,4.5-14.2
					c-2.9-4.7-17.5-4.4-22.7-2.4c-2.1,0.8-4.9,4.1-5.8,9.3c-0.5,2.7,1.5,5.8,1.8,8C12.8,57.4,10.8,64.7,10.6,65.5z"/>
				<path class="st27" d="M24.3,37.3c1.1-0.9,5.4-2.2,6.6-3.1l-0.3-7.5l-4.3-0.4c-1.2,0.1-2.5,0.4-3.5,0.8l-1,5L21.7,33
					C21.2,34.1,22.2,35.4,24.3,37.3z"/>
				<g>
					<g>
						<path class="st28" d="M19.8,18.4c-0.3,1.5-1,4.7-0.9,6.2c0.2,2.3,2.3,4.8,4.2,5.1c2.2,0.2,5-0.4,6.6-1.8
							c0.9-1,2.6-3.5,3.4-5.6c1.6-4.4-1.5-8.3-5.5-9.2C23.5,12.3,20.8,13.8,19.8,18.4z"/>
						<path d="M31.7,25.4c0.8-1.5-0.3-2.1-1.5-0.9c0.2-1.1,1.5-4.3,0.4-5.4c-1.3-1.2-6.8-0.7-9.8-3.8c0,0,2.2-4.9,9.5-2
							C38.5,17.6,31.7,25.4,31.7,25.4z"/>
						
							<ellipse transform="matrix(0.6391 -0.7691 0.7691 0.6391 -7.6697 33.3215)" class="st28" cx="31.7" cy="24.8" rx="1.8" ry="1.4"/>
					</g>
				</g>
				<path class="st29" d="M21.9,31.5c0.7,1.3,8.2,0.6,8.9-0.5l0.4,4.2l-7,4l-3.6-4L21.9,31.5z"/>
				<path d="M34.2,17.7C34,14.1,27,8.9,21.9,10.9c-3.4,1.3-2.6,4.9,0.4,5.6C24.9,17,32.1,13.9,34.2,17.7z"/>
				<path class="st24" d="M10.3,64.9c5.7,2.5,19,1.9,23,0l1,3.4c-8.6,2-16.9,2.1-24.7-0.1L10.3,64.9z"/>
				<g>
					<g>
						<g>
							
								<linearGradient id="SVGID_8_" gradientUnits="userSpaceOnUse" x1="30.4037" y1="100.1761" x2="50.706" y2="100.1761" gradientTransform="matrix(1 0 0 -1 0 152)">
								<stop  offset="0" style="stop-color:#3054D4"/>
								<stop  offset="1" style="stop-color:#062684"/>
							</linearGradient>
							<path class="st30" d="M48.8,58.6C45,62.7,37,67.3,37,67.3l-2.5-3.5c2.5-1.4,4-5,6.4-7.5c0.8-0.9,1.8-1.6,2.9-2
								c-3.9-1-5.8-2-9.1-7.9c-4.5-0.3-5.5-6.2-3-8.4c1.8-1.7,6.5-3.4,9.9,2.1c6.1,3.4,8.7,10.9,9,14.7
								C50.9,55.8,50.1,57.2,48.8,58.6z"/>
						</g>
						<path class="st28" d="M36.7,62c0,0-2.8-0.3-3.7,0.3c-0.8,0.5-0.5,1.3-0.5,1.3c-1.6,0.6-0.8,4,1.7,5.3c2.4,1.3,5-3.3,5-3.3
							S39.3,62.6,36.7,62z"/>
						
							<linearGradient id="SVGID_9_" gradientUnits="userSpaceOnUse" x1="34.5" y1="90.1" x2="48.7696" y2="90.1" gradientTransform="matrix(1 0 0 -1 0 152)">
							<stop  offset="0" style="stop-color:#3054D4"/>
							<stop  offset="1" style="stop-color:#062684"/>
						</linearGradient>
						<path class="st31" d="M48.8,58.6c-0.2,0.2-0.5,0.5-0.7,0.8c-4,3.9-11.1,8-11.1,8l-2.5-3.5c2.2-1.2,3.5-4.1,5.4-6.4
							c0.3-0.4,0.6-0.8,1-1.1C41.8,56.8,44.7,58.3,48.8,58.6z"/>
						
							<linearGradient id="SVGID_10_" gradientUnits="userSpaceOnUse" x1="39.9139" y1="94.15" x2="48.7592" y2="94.15" gradientTransform="matrix(1 0 0 -1 0 152)">
							<stop  offset="0" style="stop-color:#3054D4"/>
							<stop  offset="1" style="stop-color:#062684"/>
						</linearGradient>
						<path class="st32" d="M48.8,58.6c-0.2,0.2-0.5,0.5-0.7,0.8c-3.4-0.2-6.7-1.4-8.1-2c0.3-0.4,0.6-0.8,1-1.1
							C41.8,56.8,44.7,58.3,48.8,58.6z"/>
					</g>
				</g>
				<g>
					<g>
						<g>
							<g>
								<path class="st33" d="M26.5,43.5L26.5,43.5C26.5,43.5,26.5,43.4,26.5,43.5C26.5,43.4,26.5,43.5,26.5,43.5z"/>
								<path class="st33" d="M26.5,43.5L26.5,43.5C26.5,43.5,26.5,43.4,26.5,43.5C26.5,43.4,26.5,43.5,26.5,43.5z"/>
								<path class="st33" d="M19.6,42.5L19.6,42.5L19.6,42.5L19.6,42.5z"/>
								<path class="st33" d="M19.6,42.5L19.6,42.5L19.6,42.5L19.6,42.5z"/>
								<path class="st0" d="M23.3,40.9c0.7,1.1,1.9,2.1,3.2,2.6c0,0.1-0.1,0.7-0.4,3.3c-0.4,3.5-3.6,4.7-4.1,4.9
									c-0.4-0.3-3.2-2.4-2.8-5.9c0.3-2.6,0.4-3.2,0.4-3.3C21,42.3,22.3,41.7,23.3,40.9z"/>
							</g>
						</g>
						<path class="st24" d="M22.9,42.7L22.9,42.7c-0.7,0.5-1.5,0.9-2.5,1L20.2,46c-0.1,1,0.1,2,0.8,2.9c0.4,0.6,0.8,0.9,1.1,1.1l0,0
							c0.3-0.1,0.8-0.4,1.3-0.8c0.8-0.7,1.3-1.6,1.4-2.6l0.3-2.2C24.2,44,23.4,43.4,22.9,42.7z"/>
					</g>
				</g>
			</g>
			<path class="st34" d="M21,34.1c0.4,1,1.6,1.8,3,2.6c2.9-0.5,5-1.4,7.2-2.6c2.1,0,3.6,0.8,5.2,1.4l-12.4,2l-7.3-2.8
				C17.6,34.4,19,34.2,21,34.1z"/>
		</g>
		<g>
			<g>
				<g>
					<g>
						<path class="st33" d="M63.8,59.9L63.8,59.9C63.8,59.8,63.8,59.8,63.8,59.9C63.8,59.8,63.8,59.9,63.8,59.9z"/>
						<path class="st33" d="M63.8,59.9L63.8,59.9C63.8,59.8,63.8,59.8,63.8,59.9C63.8,59.8,63.8,59.9,63.8,59.9z"/>
						<path class="st33" d="M27,60.3C27,60.3,27,60.2,27,60.3C27,60.2,27,60.2,27,60.3L27,60.3z"/>
						<path class="st33" d="M27,60.3C27,60.3,27,60.2,27,60.3C27,60.2,27,60.2,27,60.3L27,60.3z"/>
						<path class="st0" d="M45.3,50.1c4.3,4.5,11.2,8.2,18.5,9.8c0,0.5,0,3.2,0.2,15.6c0.2,16.5-15.6,24.7-18,26
							c-2.4-1.1-18.5-9-18.6-25.6c-0.1-12.4-0.2-15.1-0.2-15.6C34.3,58.6,41.1,54.8,45.3,50.1z"/>
					</g>
				</g>
				<path class="st24" d="M45.3,53.1c4.2,3.8,10,6.8,16.4,8.4l0.2,14c0.1,6.4-2.4,12.2-7.5,17.3c-3.3,3.3-6.8,5.4-8.6,6.3
					c-0.1,0-0.2-0.1-0.2-0.1L45.3,53.1L45.3,53.1z"/>
				<path class="st24" d="M45.3,53.2L45.6,99c-1.9-0.9-5.2-2.9-8.5-6c-5.2-5-7.8-10.7-7.9-17.1l-0.2-14C35.4,60.1,41.2,57,45.3,53.2
					z"/>
			</g>
			<g>
				<path class="st0" d="M38,73.4l0.1,10.9c0,1.2,14.8,1.1,14.8-0.1l-0.1-10.9L38,73.4z M43.6,77.5c0-1,0.8-1.8,1.8-1.8
					s1.8,0.8,1.8,1.8c0,0.7-0.4,1.4-1.1,1.7v3.1c0,0.4-0.3,0.8-0.7,0.8s-0.7-0.3-0.8-0.7v-3.1C44.1,78.8,43.6,78.2,43.6,77.5z"/>
				<path class="st0" d="M39.3,72.6h1.5v-0.7c0-2.5,2-4.6,4.6-4.6c2.5,0,4.6,2,4.6,4.6v0.7h1.5v-0.7c0-3.4-2.8-6.1-6.2-6
					c-3.4,0-6.1,2.8-6.1,6.1L39.3,72.6z"/>
			</g>
		</g>
	</g>
</g>
</svg>
