<?xml version="1.0" encoding="utf-8"?>
<!-- Generator: Adobe Illustrator 24.1.0, SVG Export Plug-In . SVG Version: 6.00 Build 0)  -->
<svg version="1.1" id="Layer_1" xmlns="http://www.w3.org/2000/svg" xmlns:xlink="http://www.w3.org/1999/xlink" x="0px" y="0px"
	 viewBox="0 0 500 500" style="enable-background:new 0 0 500 500;" xml:space="preserve">
<style type="text/css">
	.st0{fill:#FFFFFF;}
	.st1{fill:#0F4599;}
	.st2{fill:#BAE2FF;}
	.st3{fill:#1480CC;}
	.st4{fill:#EBF3FF;}
	.st5{opacity:0.7;fill:#D1D1D1;enable-background:new    ;}
	.st6{fill:#E3EEFF;}
	.st7{fill:#A3A3A3;}
	.st8{fill:#EBEBEB;}
	.st9{opacity:0.5;enable-background:new    ;}
	.st10{opacity:0.7;}
	.st11{fill:#D1D1D1;}
	.st12{fill:#2475B3;}
	.st13{fill:#3F9EE6;}
	.st14{fill:#61B3F2;}
	.st15{fill:#1A5380;}
	.st16{fill:#666666;}
	.st17{fill:#4582E6;}
	.st18{fill:#3D73CC;}
	.st19{fill:url(#SVGID_1_);}
	.st20{fill:url(#SVGID_2_);}
	.st21{fill:url(#SVGID_3_);}
	.st22{fill:url(#SVGID_4_);}
	.st23{fill:url(#SVGID_5_);}
	.st24{fill:#DF2827;}
	.st25{fill:url(#SVGID_6_);}
	.st26{fill:url(#SVGID_7_);}
	.st27{fill:#F9B08C;}
	.st28{fill:#FFBE97;}
	.st29{fill:#002E73;}
	.st30{fill:url(#SVGID_8_);}
	.st31{fill:url(#SVGID_9_);}
	.st32{fill:url(#SVGID_10_);}
	.st33{fill:#D9FFFF;}
	.st34{fill:#66B8FF;}
</style>
<g id="Background">
</g>
<g>
	<g>
		<path class="st0" d="M308.3,144.9v-18c0-8,6.7-14.7,14.7-14.7h156.7c8,0,14.7,6.7,14.7,14.7v316.4h-405V144.9H308.3z"/>
		<path class="st1" d="M307,144.9v-18c0-8,6.7-14.7,14.7-14.7h156.7c8,0,14.7,6.7,14.7,14.7v316.4H88V144.9H307z"/>
		<polygon class="st2" points="479.3,157.2 479.3,443.3 104.3,443.3 104.3,155.9 		"/>
		<polygon class="st3" points="458.7,157.2 458.7,443.3 83.6,443.3 83.6,155.9 		"/>
		<path d="M68.6,144.9h370.7c7.7,0,13.3,5,14.3,12.3v286H49V164.6C49,154.2,58.3,144.9,68.6,144.9z"/>
		<g>
			<g>
				
					<rect x="210.7" y="40.8" transform="matrix(2.253255e-03 -1 1 2.253255e-03 163.2041 461.782)" class="st4" width="204.7" height="216.7"/>
				
					<rect x="217.8" y="45.1" transform="matrix(2.215099e-03 -1 1 2.215099e-03 164.9556 460.9146)" class="st5" width="191.3" height="205.4"/>
				<polygon class="st6" points="398.3,231.6 266.3,231.2 338.7,161.9 				"/>
				<polygon class="st6" points="338.3,231.6 227.3,231.2 287.6,173.9 				"/>
				<circle class="st6" cx="297.3" cy="146.6" r="15.3"/>
			</g>
		</g>
		<g>
			<g>
				
					<rect x="169" y="24" transform="matrix(2.607560e-03 -1 1 2.607560e-03 151.3342 400.361)" class="st4" width="214.7" height="200.7"/>
				
					<rect x="176.3" y="28.2" transform="matrix(2.581161e-03 -1 1 2.581161e-03 153.0568 399.1714)" class="st5" width="200.7" height="189.3"/>
			</g>
			<rect x="277.3" y="55.3" class="st7" width="75.3" height="6.7"/>
			<rect x="199.6" y="99.5" class="st7" width="153.3" height="6.7"/>
			<rect x="199.6" y="77.4" class="st7" width="153.3" height="6.7"/>
			<rect x="199.6" y="121.6" class="st7" width="153.3" height="6.7"/>
		</g>
		<path class="st8" d="M67,144.9h370.7c7.7,0,13.3,5,14.3,12.3v287H47.3V164.6C47.3,154.2,56.3,144.9,67,144.9z"/>
		<rect x="453.7" y="441.6" class="st0" width="40.7" height="1.7"/>
		<polygon class="st9" points="494.3,265.9 479.3,275.6 459.7,275.6 453.3,280.6 453.3,275.9 49,275.9 49,265.9 		"/>
		<g class="st10">
			<g>
				<rect x="41" y="218.2" class="st11" width="459" height="52"/>
				<rect x="41" y="218.2" class="st11" width="417.7" height="52"/>
			</g>
		</g>
		<g>
			<g>
				<g>
					<path class="st12" d="M330.7,244.2c0,7.3,1.3,13.7,3.3,18.3c2,4.7,5,7.7,8,7.7h9.7v-51.7H342
						C335.7,218.6,330.7,230.2,330.7,244.2z M339.7,252.9c-1.7-0.7-3.3-4-3.3-8.7c0-4.3,1.3-8,3.3-8.3c1.7,0.7,3.3,4,3.3,8.3
						C343,248.9,341.7,252.2,339.7,252.9z"/>
					<g>
						<path class="st13" d="M335.7,244.2c0,7.3,1.3,13.7,3.7,18.3c2,4.7,5,7.7,8.3,7.7h4.3v-51.7h-4.3
							C341,218.6,335.7,230.2,335.7,244.2z M340,244.2c0-4.3,2.7-8,4.7-8.3c2,0.7,3.3,4,3.3,8.3s-1.3,8-3.3,8.7
							C343,252.2,340,248.9,340,244.2z"/>
					</g>
				</g>
				<g>
					<path class="st12" d="M335.3,244.2c0,7.3,1.3,13.7,3.3,18.3c2,4.7,5,7.7,8,7.7h9.7v-51.7h-9.7
						C340.3,218.6,335.3,230.2,335.3,244.2z M344.3,252.9c-1.7-0.7-3.3-4-3.3-8.7c0-4.3,1.3-8,3.3-8.3c1.7,0.7,3.3,4,3.3,8.3
						C347.7,248.9,346,252.2,344.3,252.9z"/>
					<g>
						<path class="st14" d="M340,244.2c0,7.3,1.3,13.7,3.7,18.3c2,4.7,5,7.7,8.3,7.7h4.3v-51.7H352C345.3,218.6,340,230.2,340,244.2
							z M344.7,244.2c0-4.3,1.3-8,3.3-8.3c2,0.7,3.3,4,3.3,8.3s-1.3,8-3.3,8.7C346.3,252.2,344.7,248.9,344.7,244.2z"/>
					</g>
					<path class="st15" d="M346.7,270.6c-0.3,0-2.7,0-5.3-2.3c-2.7-2.7-6.3-8.7-6.3-22.7c0-13,3-20,5.7-23.3
						c2.7-3.7,5.7-4.3,5.7-4.3c0.3,0,0.3,0,0.3,0.3s0,0.3-0.3,0.3l0,0c0,0-2.7,0.7-5.3,4c-2.3,3.3-5.3,10-5.3,22.7
						c0,13.3,3.3,19.3,6,22c2.7,2.7,5,2.7,5,2.7C347,269.9,347,269.9,346.7,270.6C347,270.6,347,270.6,346.7,270.6L346.7,270.6z"/>
				</g>
			</g>
			<path class="st1" d="M348,252.2c0.3,0,0.7,0.3,1.3,0.3l0,0c18.3,5.3,32,22.3,32,42.3v43.3H396v-43.3c0-28-19.7-51.7-46-57.3
				c-0.7-0.3-1-0.3-1.7-0.3C344,236.2,343.7,251.6,348,252.2z"/>
			<path class="st1" d="M331,236.6v14.7c-18.7,2.3-34,16.3-38,34.7c0,0.3-0.3,0.7-0.3,1c-0.3,1-0.3,2-0.3,3
				c-0.3,1.7-0.3,3.7-0.3,5.3v43.3h-14.3v-43.3C277.3,264.6,301,239.6,331,236.6z"/>
			<path class="st16" d="M348,252.2c0.3,0,0.7,0.3,1.3,0.3c-0.3-1-2.3-3-2.3-7.3c-0.3-4.3,1.3-7.3,3-7.7c-0.7-0.3-1-0.3-1.7-0.3
				C344,236.2,343.7,251.6,348,252.2z"/>
			<rect x="264.6" y="326.6" class="st1" width="143.7" height="117.3"/>
			<path class="st11" d="M338.7,355.6c-0.3,0-1,0-1.3,0c-9.7,0-17.7,8-17.7,17.7c0,7.3,4.3,13.3,10.3,16.3v30.3c0,4,3.3,7.3,7.3,7.3
				c0.3,0,0.7,0,1,0h0.3c3.3-0.7,5.7-3.7,5.7-7.3v-30.3c6-2.7,10.3-9,10.3-16.3C355,363.9,348,356.2,338.7,355.6z"/>
			<path class="st8" d="M338.7,355.6c-9.3,0.7-16.7,8.3-16.7,17.7c0,7.3,4.3,13.3,10.3,16.3v30.3c0,3.7,2.7,6.7,5.7,7.3h0.3
				c3.3-0.7,5.7-3.7,5.7-7.3v-30.3c6-2.7,10.3-9,10.3-16.3C355,363.9,348,356.2,338.7,355.6z"/>
		</g>
	</g>
	<g>
		<g>
			<path class="st17" d="M229.3,390c0,0-14.7-0.3-29.3,0.3c-15,0.7-30,2.7-28,8c0.3,1.3,0.7,2.3,0.3,3.3c-3,14-58,24.3-70.3,15.7
				c-9-6.3-34,1.7-44.3,6.3c-19.3-130.3-20-263.7-2.7-273c17.3-9.3,65,2.3,65,2.3s24.3,6.3,34,72.7C164.3,292,229.3,390,229.3,390z"
				/>
			<path class="st18" d="M172.3,398c0.3,1.3,0.7,2.3,0.3,3.3c-15-45.3-50-175.3-37.3-140c12.3,34,50.7,103.3,64.7,128.7
				C185,391,170,393,172.3,398z"/>
			<g>
				<g>
					<g>
						<g>
							
								<linearGradient id="SVGID_1_" gradientUnits="userSpaceOnUse" x1="-9.094947e-13" y1="549.5056" x2="71.026" y2="549.5056" gradientTransform="matrix(1 0 0 1 0 -348)">
								<stop  offset="0" style="stop-color:#3054D4"/>
								<stop  offset="1" style="stop-color:#062684"/>
							</linearGradient>
							<path class="st19" d="M53.3,185c-14.3,17.3-16.7,21.7-30,22.3c4.3,2.7,7,6.7,9,10.7l0,0c4,8.7,4.3,18.7,11.3,24l-8,8
								l-2.3,2.3c0,0-0.3-0.3-0.7-0.7c-3.7-3.3-17.7-16.7-26-29c-5-7-8-13.7-6-18c3.3-12.3,12-37.3,34-45
								C49,144,63.3,152.3,68.3,159C75.3,168,68.3,186.6,53.3,185z"/>
							
								<linearGradient id="SVGID_2_" gradientUnits="userSpaceOnUse" x1="6.4843" y1="582.9786" x2="43.646" y2="582.9786" gradientTransform="matrix(1 0 0 1 0 -348)">
								<stop  offset="0" style="stop-color:#3054D4"/>
								<stop  offset="1" style="stop-color:#062684"/>
							</linearGradient>
							<path class="st20" d="M43.6,242.3l-8,8l-3,1.3c-3.3-3-16-15-24.7-26.7c-0.7-0.7-1-1.3-1.7-2c4.3,0,17.7-0.3,26-4.7l0,0
								c0.3,0.7,0.7,1.3,1,2.3C36.3,228.3,37.3,237.3,43.6,242.3z"/>
							
								<linearGradient id="SVGID_3_" gradientUnits="userSpaceOnUse" x1="6.4843" y1="569.7957" x2="33.2825" y2="569.7957" gradientTransform="matrix(1 0 0 1 0 -348)">
								<stop  offset="0" style="stop-color:#3054D4"/>
								<stop  offset="1" style="stop-color:#062684"/>
							</linearGradient>
							<path class="st21" d="M33.3,220.3c-9,5.3-19.3,5.3-25.3,4.7c-0.7-0.7-1-1.3-1.7-2c4.3,0,17.7-0.3,26-4.7l0,0
								C32.6,219,33,219.6,33.3,220.3z"/>
						</g>
						
							<linearGradient id="SVGID_4_" gradientUnits="userSpaceOnUse" x1="27.3763" y1="595.2935" x2="52.536" y2="595.2935" gradientTransform="matrix(1 0 0 1 0 -348)">
							<stop  offset="0" style="stop-color:#3054D4"/>
							<stop  offset="1" style="stop-color:#062684"/>
						</linearGradient>
						<path class="st22" d="M37.6,235c0,0,9.3,1,12,3.3c2.3,2,1,4.7,1,4.7c5,2.7,0,13.7-8.7,16.3s-14.3-13.7-14.3-13.7
							S28.6,235.3,37.6,235z"/>
					</g>
				</g>
				<g>
					<path d="M154.6,499.3h-31.3c-0.7-0.3-1-0.7-1.3-1.3c-1.7-23.3-4-34.7-4-34.7l22-1l5,17.3C152,485,161,495.7,154.6,499.3z"/>
					<path d="M121,500h37.3c1,0,0.7-5.3-0.3-5.3l-37,0.3C119.6,495,120,500,121,500z"/>
				</g>
				
					<linearGradient id="SVGID_5_" gradientUnits="userSpaceOnUse" x1="64.2793" y1="696.4719" x2="141.9339" y2="696.4719" gradientTransform="matrix(1 0 0 1 0 -348)">
					<stop  offset="0" style="stop-color:#3054D4"/>
					<stop  offset="1" style="stop-color:#062684"/>
				</linearGradient>
				<path class="st23" d="M108,250c5,13.7,26.7,76.7,20.7,121.7c8.7,30,6,55.7,13.7,99.7l-22.3,1.3c-9-53.7-19-43.3-22-96.3
					c-18.3-41.7-28-81-33-121.7C60,223.6,97.6,207.6,108,250z"/>
				<path d="M119.6,474.7c0,0-1.7-16-12.3-46.3c-3.3-9.3-5-15.7-6-19.3c-1-4-1-5.3-1-5.3c5.7-6.3,12.7-16,19-27.7
					c7,10.7,15,21.3,15,21.3s0.3,2.7,0.7,6.7c1.7,17.3,6,63,8.7,72.7C147,488.3,126.3,495,119.6,474.7z"/>
				<path class="st24" d="M135,404c-3.7-4-10-11.3-15.3-19.7c-2.3,9-12.7,19.7-18,24.7c-1-4-1-5.3-1-5.3c5.7-6.3,12.7-16,19-27.7
					c7,10.7,15,21.3,15,21.3S134.6,399.7,135,404z"/>
				
					<linearGradient id="SVGID_6_" gradientUnits="userSpaceOnUse" x1="28.1034" y1="697.6774" x2="81.521" y2="697.6774" gradientTransform="matrix(1 0 0 1 0 -348)">
					<stop  offset="0" style="stop-color:#3054D4"/>
					<stop  offset="1" style="stop-color:#062684"/>
				</linearGradient>
				<path class="st25" d="M81.3,255.6C79.6,315.3,69,366,69,366c4.7,40.7-5.7,48.3-10.3,106.7l-20.3-0.3c0-23.7-1.3-53-3-100.3
					c-12.7-49.7-6.7-86-2-115.7C39,222.6,84.6,211.6,81.3,255.6z"/>
				<path d="M58.6,473c1.7,9.7,3,17.3,2.3,26l-49,1c0,0-5-4.7,1.3-11.7c6-7,17.7-3,25-15.3H58.6z"/>
				<path d="M10,500h52c1,0,0.7-5.3-0.3-5.3L10,495C9,495,9,500,10,500z"/>
				<path d="M68.6,407c0,0-0.3,1.7-1,4.7c-2.3,13-9,48.7-8.3,65c-9.3,11-21-1.3-21-1.3l-5-88.7l-0.3-6C46,395,59.3,402.7,68.6,407z"
					/>
				<path class="st24" d="M68.6,407c0,0-0.3,1.7-1,4.7c-18-5.3-29-17.3-34.3-25l-0.3-6C46,395,59.3,402.7,68.6,407z"/>
				
					<linearGradient id="SVGID_7_" gradientUnits="userSpaceOnUse" x1="33.9959" y1="551.3885" x2="132.6068" y2="551.3885" gradientTransform="matrix(1 0 0 1 0 -348)">
					<stop  offset="0" style="stop-color:#3054D4"/>
					<stop  offset="1" style="stop-color:#062684"/>
				</linearGradient>
				<path class="st26" d="M35.3,253c0,10.3,73.3,7.3,73.3-3c-0.3-17,2-31,5.3-42.7c22-21.7,20.7-38.3,15-47.3
					c-9.7-15.7-58.3-14.7-75.7-8c-7,2.7-16.3,13.7-19.3,31c-1.7,9,5,19.3,6,26.7C42.6,226,36,250.3,35.3,253z"/>
				<path class="st27" d="M81,159c3.7-3,18-7.3,22-10.3l-1-25l-14.3-1.3c-4,0.3-8.3,1.3-11.7,2.7l-3.3,16.7l-0.3,3
					C70.6,148.3,74,152.6,81,159z"/>
				<g>
					<g>
						<path class="st28" d="M66,96c-1,5-3.3,15.7-3,20.7c0.7,7.7,7.7,16,14,17c7.3,0.7,16.7-1.3,22-6c3-3.3,8.7-11.7,11.3-18.7
							c5.3-14.7-5-27.7-18.3-30.7C78.3,75.6,69.3,80.6,66,96z"/>
						<path d="M105.6,119.3c2.7-5-1-7-5-3c0.7-3.7,5-14.3,1.3-18c-4.3-4-22.7-2.3-32.7-12.7c0,0,7.3-16.3,31.7-6.7
							C128.3,93.3,105.6,119.3,105.6,119.3z"/>
						
							<ellipse transform="matrix(0.6391 -0.7691 0.7691 0.6391 -52.1167 123.4736)" class="st28" cx="105.5" cy="117.3" rx="6" ry="4.7"/>
					</g>
				</g>
				<path class="st29" d="M73,139.6c2.3,4.3,27.3,2,29.7-1.7l1.3,14l-23.3,13.3l-12-13.3L73,139.6z"/>
				<path d="M114,93.6c-0.7-12-24-29.3-41-22.7c-11.3,4.3-8.7,16.3,1.3,18.7C83,91.3,107,81,114,93.6z"/>
				<path class="st24" d="M34.3,251c19,8.3,63.3,6.3,76.7,0l3.3,11.3C85.6,269,58,269.3,32,262L34.3,251z"/>
				<g>
					<g>
						<g>
							
								<linearGradient id="SVGID_8_" gradientUnits="userSpaceOnUse" x1="101.3136" y1="555.3896" x2="168.9933" y2="555.3896" gradientTransform="matrix(1 0 0 1 0 -348)">
								<stop  offset="0" style="stop-color:#3054D4"/>
								<stop  offset="1" style="stop-color:#062684"/>
							</linearGradient>
							<path class="st30" d="M162.6,230c-12.7,13.7-39.3,29-39.3,29l-8.3-11.7c8.3-4.7,13.3-16.7,21.3-25c2.7-3,6-5.3,9.7-6.7
								c-13-3.3-19.3-6.7-30.3-26.3c-15-1-18.3-20.7-10-28c6-5.7,21.7-11.3,33,7c20.3,11.3,29,36.3,30,49
								C169.6,220.6,167,225.3,162.6,230z"/>
						</g>
						<path class="st28" d="M122.3,241.3c0,0-9.3-1-12.3,1c-2.7,1.7-1.7,4.3-1.7,4.3c-5.3,2-2.7,13.3,5.7,17.7
							c8,4.3,16.7-11,16.7-11S131,243.3,122.3,241.3z"/>
						
							<linearGradient id="SVGID_9_" gradientUnits="userSpaceOnUse" x1="114.969" y1="588.9791" x2="162.5382" y2="588.9791" gradientTransform="matrix(1 0 0 1 0 -348)">
							<stop  offset="0" style="stop-color:#3054D4"/>
							<stop  offset="1" style="stop-color:#062684"/>
						</linearGradient>
						<path class="st31" d="M162.6,230c-0.7,0.7-1.7,1.7-2.3,2.7c-13.3,13-37,26.7-37,26.7l-8.3-11.7c7.3-4,11.7-13.7,18-21.3
							c1-1.3,2-2.7,3.3-3.7C139.3,224,149,229,162.6,230z"/>
						
							<linearGradient id="SVGID_10_" gradientUnits="userSpaceOnUse" x1="133.0168" y1="575.4781" x2="162.5035" y2="575.4781" gradientTransform="matrix(1 0 0 1 0 -348)">
							<stop  offset="0" style="stop-color:#3054D4"/>
							<stop  offset="1" style="stop-color:#062684"/>
						</linearGradient>
						<path class="st32" d="M162.6,230c-0.7,0.7-1.7,1.7-2.3,2.7c-11.3-0.7-22.3-4.7-27-6.7c1-1.3,2-2.7,3.3-3.7
							C139.3,224,149,229,162.6,230z"/>
					</g>
				</g>
				<g>
					<g>
						<g>
							<g>
								<path class="st33" d="M88.3,179.6L88.3,179.6C88.3,179.6,88.3,179.3,88.3,179.6C88.3,179.3,88.3,179.6,88.3,179.6z"/>
								<path class="st33" d="M88.3,179.6L88.3,179.6C88.3,179.6,88.3,179.3,88.3,179.6C88.3,179.3,88.3,179.6,88.3,179.6z"/>
								<path class="st33" d="M65.3,176.3L65.3,176.3L65.3,176.3L65.3,176.3z"/>
								<path class="st33" d="M65.3,176.3L65.3,176.3L65.3,176.3L65.3,176.3z"/>
								<path class="st0" d="M77.6,171c2.3,3.7,6.3,7,10.7,8.7c0,0.3-0.3,2.3-1.3,11c-1.3,11.7-12,15.7-13.7,16.3
									c-1.3-1-10.7-8-9.3-19.7c1-8.7,1.3-10.7,1.3-11C70,175.6,74.3,173.6,77.6,171z"/>
							</g>
						</g>
						<path class="st24" d="M76.3,177L76.3,177c-2.3,1.7-5,3-8.3,3.3l-0.7,7.7c-0.3,3.3,0.3,6.7,2.7,9.7c1.3,2,2.7,3,3.7,3.7l0,0
							c1-0.3,2.7-1.3,4.3-2.7c2.7-2.3,4.3-5.3,4.7-8.7l1-7.3C80.6,181.3,78,179.3,76.3,177z"/>
					</g>
				</g>
			</g>
			<path class="st34" d="M70,148.3c1.3,3.3,5.3,6,10,8.7c9.7-1.7,16.7-4.7,24-8.7c7,0,12,2.7,17.3,4.7L80,159.6l-24.3-9.3
				C58.6,149.3,63.3,148.6,70,148.3z"/>
		</g>
		<g>
			<g>
				<g>
					<g>
						<path class="st33" d="M212.6,234.3L212.6,234.3C212.6,234,212.6,234,212.6,234.3C212.6,234,212.6,234.3,212.6,234.3z"/>
						<path class="st33" d="M212.6,234.3L212.6,234.3C212.6,234,212.6,234,212.6,234.3C212.6,234,212.6,234.3,212.6,234.3z"/>
						<path class="st33" d="M90,235.6C90,235.6,90,235.3,90,235.6C90,235.3,90,235.3,90,235.6L90,235.6z"/>
						<path class="st33" d="M90,235.6C90,235.6,90,235.3,90,235.6C90,235.3,90,235.3,90,235.6L90,235.6z"/>
						<path class="st0" d="M151,201.6c14.3,15,37.3,27.3,61.7,32.7c0,1.7,0,10.7,0.7,52c0.7,55-52,82.3-60,86.7
							c-8-3.7-61.7-30-62-85.3c-0.3-41.3-0.7-50.3-0.7-52C114.3,230,137,217.3,151,201.6z"/>
					</g>
				</g>
				<path class="st24" d="M151,211.6c14,12.7,33.3,22.7,54.7,28l0.7,46.7c0.3,21.3-8,40.7-25,57.7c-11,11-22.7,18-28.7,21
					c-0.3,0-0.7-0.3-0.7-0.3L151,211.6L151,211.6z"/>
				<path class="st24" d="M151,212l1,152.7c-6.3-3-17.3-9.7-28.3-20c-17.3-16.7-26-35.7-26.3-57L96.6,241
					C118,235,137.3,224.6,151,212z"/>
			</g>
			<g>
				<path class="st0" d="M126.6,279.3l0.3,36.3c0,4,49.3,3.7,49.3-0.3L176,279L126.6,279.3z M145.3,293c0-3.3,2.7-6,6-6s6,2.7,6,6
					c0,2.3-1.3,4.7-3.7,5.7V309c0,1.3-1,2.7-2.3,2.7c-1.3,0-2.3-1-2.7-2.3V299C147,297.3,145.3,295.3,145.3,293z"/>
				<path class="st0" d="M131,276.6h5v-2.3c0-8.3,6.7-15.3,15.3-15.3c8.3,0,15.3,6.7,15.3,15.3v2.3h5v-2.3c0-11.3-9.3-20.3-20.7-20
					c-11.3,0-20.3,9.3-20.3,20.3L131,276.6z"/>
			</g>
		</g>
	</g>
</g>
</svg>
