<?xml version="1.0" encoding="utf-8"?>
<!-- Generator: Adobe Illustrator 24.1.0, SVG Export Plug-In . SVG Version: 6.00 Build 0)  -->
<svg version="1.1" id="Layer_1" xmlns="http://www.w3.org/2000/svg" xmlns:xlink="http://www.w3.org/1999/xlink" x="0px" y="0px"
	 viewBox="0 0 500 500" style="enable-background:new 0 0 500 500;" xml:space="preserve">
<style type="text/css">
	.st0{fill:#FFBE97;}
	.st1{fill:url(#SVGID_1_);}
	.st2{fill:#F79F72;}
	.st3{fill:url(#SVGID_2_);}
	.st4{fill:url(#SVGID_3_);}
	.st5{fill:url(#SVGID_4_);}
	.st6{fill:url(#SVGID_5_);}
	.st7{fill:url(#SVGID_6_);}
	.st8{fill:url(#SVGID_7_);}
	.st9{fill:#F9B08C;}
	.st10{fill:url(#SVGID_8_);}
	.st11{fill:url(#SVGID_9_);}
	.st12{fill:url(#SVGID_10_);}
	.st13{fill:url(#SVGID_11_);}
	.st14{fill:url(#SVGID_12_);}
	.st15{fill:url(#SVGID_13_);}
	.st16{fill:#595959;}
	.st17{fill:#353535;}
	.st18{fill:url(#SVGID_14_);}
	.st19{fill:#262626;}
	.st20{fill:url(#XMLID_3_);}
	.st21{clip-path:url(#SVGID_16_);}
	.st22{fill:#FFC5C7;}
	.st23{fill:url(#SVGID_17_);}
	.st24{fill:#FE8A8B;}
	.st25{fill:#0C0835;}
	.st26{fill:#252384;}
	.st27{fill:#FFFFFF;}
	.st28{fill:url(#SVGID_18_);}
	.st29{fill:url(#SVGID_19_);}
	.st30{fill:url(#SVGID_20_);}
	.st31{fill:url(#SVGID_21_);}
	.st32{fill:url(#SVGID_22_);}
	.st33{fill:url(#SVGID_23_);}
</style>
<g>
	<g>
		<path class="st0" d="M249.1,388.2c-7.2,8.4-31.2,24.7-37.8,45.3c-6.2,20.6,25.9,17.8,25.9,17.8l33.1-39.3L249.1,388.2z"/>
		
			<linearGradient id="SVGID_1_" gradientUnits="userSpaceOnUse" x1="236.0701" y1="716.9933" x2="314.4402" y2="716.9933" gradientTransform="matrix(1 0 0 1 0 -348)">
			<stop  offset="0" style="stop-color:#DF2827"/>
			<stop  offset="1" style="stop-color:#9E005D"/>
		</linearGradient>
		<path class="st1" d="M294.7,311.4c-10,7.2-15.9,12.5-20.6,22.2c-5,10-35.6,45.3-37.8,48.4c-1.9,3.1,17.2,36.5,32.8,44.6
			c0,0,23.4-26.8,36.8-37.1c13.4-10.3,8.7-46.2,2.5-58.4C302.2,319.2,294.7,311.4,294.7,311.4z"/>
		<path class="st0" d="M198.5,443.4c-2.5,0.9-4.4,1.9-4.4,5.3c0,3.1,0.6,8.4,1.9,10.3c1.2,1.9,7.5,3.1,7.5,3.1s-0.3-13.4-1.9-15.9
			C200.1,444.1,198.5,443.4,198.5,443.4z"/>
		<path class="st2" d="M195.7,459c-0.3-0.6-0.6-1.2-0.9-2.2c1.2,1.2,1.9,1.2,3.4,1.6l4.7,1.6c0,1.6,0,2.5,0,2.5S197,460.9,195.7,459
			z"/>
		<path class="st0" d="M204.5,438.4c-3.1,0.3-6.2,2.8-6.2,5.9c0,3.1-1.2,12.2,0,13.7c1.2,1.6,6.6,5.6,8.4,5.9c1.9,0.3,5-0.3,4.7-1.2
			C211,461.8,204.5,438.4,204.5,438.4z"/>
		<path class="st2" d="M197.9,455.6c2.5,2.8,8.4,2.5,8.4,2.5s2.8,2.8,3.1,3.7c0.3,0.6,1.2,1.2,1.6,1.9c-0.9,0.3-2.8,0.6-3.7,0.3
			c-1.9-0.3-7.2-4.4-8.4-5.9L197.9,455.6L197.9,455.6z"/>
		<path class="st0" d="M216.3,433.1c-9.7,0.6-11.2,1.6-11.5,5.3c-0.3,4.1,0,15.3,1.2,18.1c1.2,2.8,1.9,5.6,3.4,7.2
			c1.6,1.6,3.7,1.6,3.7,1.6s5.3-7.8,5.6-14C218.8,444.7,216.3,433.1,216.3,433.1z"/>
		<path class="st2" d="M210.7,458.7c0.6-2.5,1.6-5.6,1.6-14.4c0-3.4,3.1,14,1.9,18.7c-0.6,1.2-1.2,1.9-1.2,1.9s-2.2,0-3.7-1.6
			c-1.6-1.6-2.2-4.1-3.4-7.2c0-0.3,0-0.3-0.3-0.6C206,457.5,207.9,458.7,210.7,458.7z"/>
		<path class="st0" d="M237.2,452.8c-0.6,5.3-7.5,7.2-8.4,10c-0.9,2.8-0.3,5-1.6,5.9c-1.2,0.6-6.9-2.5-6.6-5.9c0,0-1.6,3.1-4.7,3.4
			c-3.1,0.6-4.1-1.9-3.4-5.3c0.6-3.4,0.3-5.3,0.3-9.7c0-4.4-1.2-8.1,0.9-12.8c1.9-4.7,4.4-8.7,9.7-8.1c5,0.6,8.1,7.2,10.9,9.4
			C236.9,441.9,237.9,446.9,237.2,452.8z"/>
		<path class="st2" d="M220.7,462.5c0.3-6.9,0.6-12.2,0.6-13.4c0-1.2-0.3-8.4,2.2-8.7c0.3,0,5.9,3.4,6.2,5.9c0,2.5,0,6.9-1.9,7.8
			C226,455.3,220.7,462.5,220.7,462.5z"/>
		<g>
			
				<linearGradient id="SVGID_2_" gradientUnits="userSpaceOnUse" x1="288.967" y1="728.4966" x2="452.8669" y2="728.4966" gradientTransform="matrix(1 0 0 1 0 -348)">
				<stop  offset="0" style="stop-color:#DF2827"/>
				<stop  offset="1" style="stop-color:#9E005D"/>
			</linearGradient>
			<path class="st3" d="M452.9,325.8c-10.3-12.8-13.7-14.4-24-20.3c-10.6-6.2-50.2-21.5-58.4-23.7c-8.1-1.9-41.2,13.4-52.1,18.4
				c-10.9,5-24.7,9.7-26.8,14.7c-7.8,15.9,7.8,38.7,7.8,86.5c0,25,5.6,78,5.6,78s124.8,0.6,126.7-1.9c1.9-2.5,6.2-89.9,8.4-108
				C442,351,452.9,325.8,452.9,325.8z"/>
			
				<linearGradient id="SVGID_3_" gradientUnits="userSpaceOnUse" x1="386.0579" y1="641.5441" x2="357.3096" y2="656.4224" gradientTransform="matrix(1 0 0 1 0 -348)">
				<stop  offset="0" style="stop-color:#FF8900"/>
				<stop  offset="1" style="stop-color:#FFAE01"/>
			</linearGradient>
			<path class="st4" d="M341.5,323.6c8.7-0.9,23.1-8.7,28.4-5.9c5.6,2.5,6.9,9.4,8.1,10.6c1.2,1.2,5.9-4.7,5.9-18.7
				c0-14,0.3-28.4-10-30.6c-10.3-1.9-37.1,8.1-42.8,12.2c-5.3,4.1-7.8,8.1-9.1,12.2c-1.6,4.1-5.3,20-3.7,20.3
				c1.9,0.3,6.9-10.3,10.6-10.6C333.1,312.7,339,323.9,341.5,323.6z"/>
			
				<linearGradient id="SVGID_4_" gradientUnits="userSpaceOnUse" x1="331.8028" y1="648.3175" x2="342.8735" y2="648.3175" gradientTransform="matrix(1 0 0 1 0 -348)">
				<stop  offset="0" style="stop-color:#FF8900"/>
				<stop  offset="1" style="stop-color:#FFAE01"/>
			</linearGradient>
			<path class="st5" d="M336.5,311.1c-2.2-5.3-4.7-10-4.7-13.7s0.9-6.2,5-7.5c4.1-1.2,5.9,0.9,5.9,6.6
				C343,302,336.5,311.1,336.5,311.1z"/>
			
				<linearGradient id="SVGID_5_" gradientUnits="userSpaceOnUse" x1="368.5446" y1="638.3445" x2="377.5046" y2="638.3445" gradientTransform="matrix(1 0 0 1 0 -348)">
				<stop  offset="0" style="stop-color:#FF8900"/>
				<stop  offset="1" style="stop-color:#FFAE01"/>
			</linearGradient>
			<path class="st6" d="M368.6,301.1c8.4-7.8,9.7-16.5,8.7-18.4s-4.4-3.1-4.4-3.1s-1.2,5.6-0.6,7.2
				C373.3,288,368.6,301.1,368.6,301.1z"/>
			<g>
				
					<linearGradient id="SVGID_6_" gradientUnits="userSpaceOnUse" x1="354.356" y1="664.7169" x2="385.6791" y2="664.7169" gradientTransform="matrix(1 0 0 1 0 -348)">
					<stop  offset="0" style="stop-color:#FF8900"/>
					<stop  offset="1" style="stop-color:#FFAE01"/>
				</linearGradient>
				<path class="st7" d="M354.9,319.8c4.1-2.2,8.4-4.1,13.4-3.7c1.2,0,2.8,0.3,4.1,1.2c0.9,0.9,1.6,1.6,2.5,2.5
					c1.6,1.9,2.8,4.1,3.7,6.2c0,0.3,0.6,0.9,0.3,0.6c-0.3-0.3-0.9,0-0.6,0c0,0,0.3,0,0.3-0.3c0.6-0.6,0.9-1.6,1.6-2.8
					c0.9-1.9,1.6-4.1,2.2-5.9c0.9-4.4,1.6-8.7,1.9-13.4c0.9,4.7,0.9,9.1,0.6,13.7c-0.3,2.2-0.9,4.7-1.9,6.9
					c-0.6,0.9-0.9,2.2-1.9,3.1c-0.3,0.3-0.6,0.6-0.9,0.9c-0.3,0-0.6,0.3-0.9,0.3c-0.3,0-0.9,0-1.2,0c-0.6-0.3-0.9-0.9-1.2-1.2
					c-0.3-0.3-0.3-0.6-0.6-0.9c-0.9-2.2-1.9-4.1-3.1-5.6c-0.6-0.9-1.6-1.9-2.2-2.5c-0.6-0.3-1.6-0.9-2.5-0.9c-1.9-0.3-4.4,0-6.6,0.3
					C359.3,318.9,357.1,319.5,354.9,319.8z"/>
			</g>
			<g>
				
					<linearGradient id="SVGID_7_" gradientUnits="userSpaceOnUse" x1="316.5187" y1="666.4334" x2="335.9028" y2="666.4334" gradientTransform="matrix(1 0 0 1 0 -348)">
					<stop  offset="0" style="stop-color:#FF8900"/>
					<stop  offset="1" style="stop-color:#FFAE01"/>
				</linearGradient>
				<path class="st8" d="M334.6,317c-1.2-0.6-2.2-1.6-3.1-1.9c-0.9-0.6-2.5-0.9-2.2-0.6c-1.9,1.2-3.4,3.1-4.7,5
					c-0.6,0.9-1.2,2.2-2.2,3.1c-0.3,0.6-0.9,0.9-1.6,1.6l-0.6,0.3c-0.3,0-0.6,0.3-0.9,0.3c-0.9,0-1.9-0.9-1.9-1.2
					c-0.3-1.9,0-3.1,0.3-4.4c0.3-1.2,0.9-2.5,1.6-3.4c0,1.2,0,2.5,0,3.7s0,2.8,0.3,3.1c0,0-0.3-0.3-0.6-0.3l0,0c0,0,0,0,0.3-0.3
					c0.3-0.3,0.6-0.6,0.9-1.2c0.6-0.9,1.2-1.9,1.9-3.1c1.6-2.2,3.7-4.4,5.9-5.3c0,0,0.6-0.3,0.9-0.3c0.3,0,0.6,0,0.9,0
					c0.6,0,0.9,0.3,1.2,0.6c0.6,0.3,1.2,0.9,1.6,1.2C333.4,314.8,334,315.8,334.6,317z"/>
			</g>
			<path class="st9" d="M335.2,279c0,3.4,0.3,6.9,0.6,10.3c0.9,8.4,0,19.7,0.6,21.5c0.6,2.2,5.3,10.6,5.3,10.6s7.8-3.7,11.2-7.5
				c3.4-4.1,7.5-4.1,13.4-10c5.6-5.9,9.7-15,8.4-22.8c-0.3-0.9-1.2-10.9-1.2-20.9c-0.3-10.3-10.9-17.8-20.9-17.8
				c-10.3,0-16.2,15-16.5,25.3C335.2,271.8,335.2,275.8,335.2,279z"/>
		</g>
		<g>
			
				<linearGradient id="SVGID_8_" gradientUnits="userSpaceOnUse" x1="296.2236" y1="586.6923" x2="332.9344" y2="586.6923" gradientTransform="matrix(1 0 0 1 0 -348)">
				<stop  offset="0" style="stop-color:#3054D4"/>
				<stop  offset="1" style="stop-color:#062684"/>
			</linearGradient>
			<path class="st10" d="M317.4,218.1c-15.3,0-21.2,11.9-21.2,20.6c0,7.8,2.5,20.6,21.2,20.6c9.4,0,15.6-9.4,15.6-20.6
				C333.1,227.5,326.8,218.1,317.4,218.1z"/>
			
				<linearGradient id="SVGID_9_" gradientUnits="userSpaceOnUse" x1="300.7549" y1="586.6923" x2="328.4761" y2="586.6923" gradientTransform="matrix(1 0 0 1 0 -348)">
				<stop  offset="0" style="stop-color:#062684"/>
				<stop  offset="1" style="stop-color:#3054D4"/>
			</linearGradient>
			<path class="st11" d="M316.8,223.1c-11.5,0-15.9,9.1-15.9,15.6c0,5.9,1.9,15.6,15.9,15.6c6.9,0,11.9-6.9,11.9-15.6
				C328.4,230,323.7,223.1,316.8,223.1z"/>
			<path class="st0" d="M298.1,225c0.9,5.3,3.4,7.5,4.7,14.7c1.2,7.2-1.9,17.8,2.8,27.2c4.7,9.1,12.5,21.2,16.9,21.8
				c4.4,0.6,39.9-5.6,51.8-29.3c3.4-6.9,10.9-33.7,4.4-49.9c-6.2-16.2-16.5-31.2-39.9-31.8C314.9,177.2,293.1,196.6,298.1,225z"/>
			<path d="M359.6,225c-0.9-5.6-4.7-8.7-4.7-8.7s-9.1-3.7-15.9-4.4c-6.9-0.6-14-2.8-14-2.8s2.2,5.6,5.9,8.1c0,0-16.5-0.9-21.8-5.9
				c0,0,0.9,4.1,2.2,6.9c0,0-8.1-0.9-10.6-4.1c0,0-2.2,7.2-2.2,10.9c0,0-9.7-13.4-7.2-24s5.9-14.7,5.9-14.7s-7.2,0.6-10.9,0
				c0,0,9.1-7.8,15.9-13.1c6.9-5.3,27.2-5.3,27.2-5.3s-1.6-5.3,0.3-14c0,0,8.7,12.8,18.1,16.9c9.4,4.1,8.1,3.4,17.8,5.9
				c9.7,2.5,19,8.7,23.1,14c4.1,5.3,8.1,10.6,10.6,11.5c0,0-6.2-0.9-9.1-3.4c0,0,5,11.5-1.6,26.5c-6.6,15-23.7,10.6-26.8,7.2
				C357.4,229,359.6,225,359.6,225z"/>
			
				<linearGradient id="SVGID_10_" gradientUnits="userSpaceOnUse" x1="347.0142" y1="544.2132" x2="378.8185" y2="544.2132" gradientTransform="matrix(1 0 0 1 0 -348)">
				<stop  offset="0" style="stop-color:#3054D4"/>
				<stop  offset="1" style="stop-color:#062684"/>
			</linearGradient>
			<path class="st12" d="M365.5,219.3c0,0,1.2-37.5-18.4-49.3c0,0,15.3-1.6,23.7,13.4c8.7,15.3,8.1,28.1,7.8,35.6
				C378.6,226.5,365.5,219.3,365.5,219.3z"/>
			
				<linearGradient id="SVGID_11_" gradientUnits="userSpaceOnUse" x1="355.8344" y1="586.6923" x2="392.5452" y2="586.6923" gradientTransform="matrix(1 0 0 1 0 -348)">
				<stop  offset="0" style="stop-color:#3054D4"/>
				<stop  offset="1" style="stop-color:#062684"/>
			</linearGradient>
			<path class="st13" d="M371.4,218.1c15.3,0,21.2,11.9,21.2,20.6c0,7.8-2.5,20.6-21.2,20.6c-9.4,0-15.6-9.4-15.6-20.6
				C355.8,227.5,362.1,218.1,371.4,218.1z"/>
			
				<linearGradient id="SVGID_12_" gradientUnits="userSpaceOnUse" x1="363.1016" y1="586.6923" x2="392.5197" y2="586.6923" gradientTransform="matrix(1 0 0 1 0 -348)">
				<stop  offset="0" style="stop-color:#062684"/>
				<stop  offset="1" style="stop-color:#3054D4"/>
			</linearGradient>
			<path class="st14" d="M363,238.7c0-10,6.6-18.4,15-18.4c8.1,0,14.4,8.1,14.4,18.4c0,10-6.2,18.4-14.4,18.4
				C369.9,257.1,363,249,363,238.7z"/>
			
				<linearGradient id="SVGID_13_" gradientUnits="userSpaceOnUse" x1="369.8448" y1="586.6923" x2="390.1733" y2="586.6923" gradientTransform="matrix(1 0 0 1 0 -348)">
				<stop  offset="0" style="stop-color:#3054D4"/>
				<stop  offset="1" style="stop-color:#062684"/>
			</linearGradient>
			<ellipse class="st15" cx="379.9" cy="238.7" rx="10.3" ry="12.5"/>
		</g>
		<g>
			<path class="st16" d="M324.9,470.3c0,0.6-0.6,1.2-2.5,1.2s-50.2,0-56.8,0c-6.6,0-8.1-2.5-6.2-5.9c1.9-3.4,10.3-10.6,30.9-15.6
				c20.6-5,31.2,6.9,34.6,12.2C327.4,466.2,324.9,470.3,324.9,470.3z"/>
			<path class="st17" d="M258.8,466.8c1.2,3.7,44.6,1.9,44.6,1.9s-4.4-5.9-9.4-6.2c-5-0.3-7.2,1.6-13.7,2.5
				c-6.6,1.2-1.6-2.8-1.6-2.8s-4.7-0.9-6.6-2.5c0,0,10.6-3.1,15.3-4.1c4.4-0.6,15.9-0.3,17.5,0c0.9,0.3,6.2-2.8,12.8-1.2
				c3.4,2.5,5.9,5.6,7.2,7.5c2.5,3.7,0,8.1,0,8.1c0,0.6-0.6,1.2-2.5,1.2c-1.9,0-50.2,0-56.8,0C259.7,471.5,257.8,469.6,258.8,466.8z
				"/>
			<path class="st0" d="M444.5,434.7c0,0-40.6,6.2-62.4,10.3c-20.9,3.7-38.7,5.3-43.7,4.4s-22.5-7.5-28.1-9.7
				c-5.6-2.2-16.9-3.7-22.5-1.9c-5.6,1.9-10.3,3.7-12.8,3.7c-2.2,0-1.9,3.7,1.2,4.4c3.1,0.6,5.9,0.6,5.9,0.6s-10.3,5.6-12.2,6.2
				c-1.9,0.6,0.3,4.1,2.8,3.7c0,0-2.2,1.2-1.6,2.5c0.6,1.2,6.2,1.2,6.2,1.2s-6.6,3.4-1.2,4.7c5.6,1.2,12.2-5,15-5.6
				c2.8-0.6,9.1-0.3,12.2,2.2c3.1,2.2,16.2,12.8,34,6.6c0,0,121.7,5,133.9,5c12.2,0,19.4-10.6,15.6-31.5
				c-3.7-20.6-11.5-36.2-11.5-36.2l-41.8,2.8L444.5,434.7z"/>
			<g>
				<path class="st2" d="M291.5,443.4c0.9-0.3,1.9-0.3,2.5-0.3C294,443.1,293.1,443.1,291.5,443.4z"/>
				<path class="st2" d="M282.2,446.9c0,0-2.8,0-5.9-0.6c-0.9-0.3-1.6-0.6-1.9-1.2c3.4,1.6,7.5,0.6,10,0c1.6-0.3,5-0.9,7.5-1.6
					C289.4,444.1,285.6,445.3,282.2,446.9z"/>
			</g>
			<g>
				<path class="st2" d="M282.5,451.5c0.3,0,0.6-0.3,0.6-0.3C283.1,451.5,283.1,451.5,282.5,451.5z"/>
				<path class="st2" d="M270,455.3c0,0,1.2,1.2,3.7,0c2.2-0.9,7.2-3.1,9.1-3.7c-2.2,0.9-8.4,4.4-10,5
					C271.6,456.8,270.6,456.2,270,455.3z"/>
			</g>
			<path class="st2" d="M276.2,459.3c1.9-0.6,5.6-2.8,8.1-4.1c2.5-1.2,5.3-1.2,5.3-1.2s-0.9,0-3.4,1.2s-8.7,5.3-8.7,5.3
				s-3.4,0-5.3-0.6C272.2,460,274.4,460,276.2,459.3z"/>
			
				<linearGradient id="SVGID_14_" gradientUnits="userSpaceOnUse" x1="405.2136" y1="724.4245" x2="486.9106" y2="724.4245" gradientTransform="matrix(1 0 0 1 0 -348)">
				<stop  offset="0" style="stop-color:#DF2827"/>
				<stop  offset="1" style="stop-color:#9E005D"/>
			</linearGradient>
			<path class="st18" d="M486.6,407.2c0.6,1.6,0.3,3.1-0.9,4.4c-7.5,7.2-16.9,16.9-26.8,18.4c-10.9,1.6-28.7,2.2-30,0
				c-0.9-2.2-4.7-31.5-11.2-46.2c-6.6-14.7-10.9-22.2-12.5-30.9c-1.6-8.4,13.1-28.4,19.7-30.3c6.6-1.6,21.5-2.5,27.8,2.8
				c6.2,5.6,10.9,26.8,18.1,43.1C476.6,381.9,484.1,400.7,486.6,407.2z"/>
		</g>
	</g>
	<g>
		<g>
			<path class="st17" d="M224.1,461.8H103c-1.2,0-2.2,0.9-2.2,2.2v5.3c0,1.2,0.9,2.2,2.2,2.2h121.1V461.8z"/>
			<path class="st17" d="M255.3,468.7v2.2c0,0.6-0.3,0.9-0.9,0.9h-30.6c-0.9,0-1.9-0.6-1.9-1.9v-6.2c0-0.9,0.9-1.9,1.9-1.6l30.3,5.9
				C255,467.8,255.3,468.1,255.3,468.7z"/>
		</g>
		<g>
			<g>
				<path class="st17" d="M12.5,256.2h226.3c4.7,0,8.7,2.8,10.3,7.2l49.6,137.3c2.2,7.2-3.1,12.5-11.5,13.4c-1.2,0-7.5-2.5-16.9-7.2
					H67.8c-4.7,0-8.7-2.8-10.3-7.2L12.8,275.5C5.3,271.5,1,269.3,1,269.3S-1.8,256.2,12.5,256.2z"/>
				<path class="st16" d="M231.6,263.3H5.3c-3.1,0-5.3,3.1-4.4,6.2l49.6,137.3c1.6,4.4,5.6,7.2,10.3,7.2h226.3
					c3.1,0,5.3-3.1,4.4-6.2l-49.6-137.3C240.4,266.2,236.3,263.3,231.6,263.3z"/>
				<polygon class="st17" points="180.7,414.1 170.4,376.6 132.4,414.1 				"/>
				<g>
					<g>
						<g>
							<polygon class="st17" points="231.9,391 228.8,383.2 232.6,383.2 235.4,391 							"/>
						</g>
						<g>
							<polygon class="st17" points="224.1,391 221.3,383.2 224.8,383.2 227.9,391 							"/>
						</g>
						<g>
							<polygon class="st17" points="216.3,391 213.5,383.2 217.3,383.2 220.1,391 							"/>
						</g>
						<g>
							<polygon class="st17" points="208.8,391 205.7,383.2 209.5,383.2 212.3,391 							"/>
						</g>
					</g>
				</g>
				<g>
					<g>
						<g>
							<polygon class="st17" points="99.3,391 96.5,383.2 100.2,383.2 103,391 							"/>
						</g>
						<g>
							<polygon class="st17" points="91.8,391 88.7,383.2 92.4,383.2 95.2,391 							"/>
						</g>
						<g>
							<polygon class="st17" points="84,391 81.2,383.2 84.6,383.2 87.7,391 							"/>
						</g>
						<g>
							<polygon class="st17" points="76.2,391 73.4,383.2 77.1,383.2 79.9,391 							"/>
						</g>
					</g>
				</g>
			</g>
			<g>
				<path class="st17" d="M104.3,458.4c2.2-6.6,29.3-93.6,29.3-93.6h34.6l2.2,12.2c0,0-23.4,75.2-25.6,81.5
					c-0.3,0.6-0.3,0.9-0.6,1.6l0,0c-2.2,6.2,3.4,6.2,9.4,6.2s61.2,0,61.2,0v5.6h-60.9H113C100.9,471.5,102.1,464.7,104.3,458.4z"/>
				<path class="st16" d="M168.3,364.5c0,0-27.2,87.4-29.3,93.6c-2.2,6.6-3.4,13.4,9.1,13.4h-40.9c-12.2,0-11.2-6.9-9.1-13.4
					c2.2-6.6,29.3-93.6,29.3-93.6H168.3z"/>
			</g>
		</g>
	</g>
	<g>
		<g>
			<g>
				<path class="st19" d="M39.1,480.9h452.1c4.5,0,8-2.2,8-4.7l0,0c0-2.5-3.7-4.7-8-4.7H39.1c-4.5,0-8,2.2-8,4.7l0,0
					C31.1,478.7,34.8,480.9,39.1,480.9z"/>
			</g>
		</g>
	</g>
	<g>
		
			<linearGradient id="XMLID_3_" gradientUnits="userSpaceOnUse" x1="12.2723" y1="494.9754" x2="171.1695" y2="494.9754" gradientTransform="matrix(1 0 0 1 0 -348)">
			<stop  offset="0" style="stop-color:#3054D4"/>
			<stop  offset="1" style="stop-color:#062684"/>
		</linearGradient>
		<circle id="XMLID_2_" class="st20" cx="91.7" cy="147" r="79.4"/>
		<g>
			<g>
				<g>
					<defs>
						<path id="SVGID_15_" d="M171.2,147c0,44-35.5,79.4-79.4,79.4S12.3,191,12.3,147s35.5-94.8,79.4-94.8S171.2,103,171.2,147z"/>
					</defs>
					<clipPath id="SVGID_16_">
						<use xlink:href="#SVGID_15_"  style="overflow:visible;"/>
					</clipPath>
					<g class="st21">
						<g>
							<path class="st22" d="M203.3,210.5c1.4,7.7-5.5,14.3-7.7,15.7s-17,7.1-25.8,7.4c-8.8,0.3-20.6-18.4-15.7-20.6
								c4.7-2.2,37.4-4.4,41-4.4C198.7,208.3,203.3,210.5,203.3,210.5z"/>
							
								<linearGradient id="SVGID_17_" gradientUnits="userSpaceOnUse" x1="123.5269" y1="560.8107" x2="180.1843" y2="560.8107" gradientTransform="matrix(1 0 0 1 0 -348)">
								<stop  offset="0" style="stop-color:#FF8900"/>
								<stop  offset="1" style="stop-color:#FFAE01"/>
							</linearGradient>
							<path class="st23" d="M180.2,206.4c-3.8,22.8-12.9,40.4-15.9,40.7c-2.7,0.3-30.5-9.1-37.9-12.6c-7.7-3.6,2.2-56.9,7.1-55.8
								c4.7,0.8,15.1,11.3,23.6,16.2C165.4,199.5,180.2,206.4,180.2,206.4z"/>
							<path class="st0" d="M203.3,209.4c0.3,9.1-8,10.4-17.6,8c-9.6-2.2-25.6-24.2-32.7-34.1c-7.1-9.9-20.3-27.5-23.1-29.1
								c-2.7-1.6-9.1-2.5-14.3-11.3s1.6-27.5,4.1-29.7c2.5-2.2,24.2,5.2,26.7,8.8c2.5,3.8-1.6,23.9-1.1,26.4
								c0.8,2.5,19.2,23.1,27.2,28.3C181.1,181.6,203.3,202.8,203.3,209.4z"/>
							<path class="st24" d="M131,128c-2.5-1.4-3.3-6.9-1.6-6c1.6,1.1,4.4,1.1,8.2,0.8c3.8,0,5.2-0.3,5.2-0.3s0.3,2.5,0.3,4.4
								C143.4,126.9,133.8,129.1,131,128z"/>
							<path class="st25" d="M145.3,130.8c-0.3,1.4-15.1,14.3-16.5,15.7c0,0-1.4,0.3-1.6,0c-3.8-3.6-21.2-34.6-21.4-35.7
								c-0.3-1.1,11.3-11.8,14.6-14.6c0.5-0.3,2.5-0.3,2.7,0.3C126.6,101.6,145.6,128.8,145.3,130.8z"/>
							<path class="st26" d="M143.7,130.8c-0.3,1.4-15.1,14.3-16.5,15.7c-1.6,1.4-22.8-34.6-23.1-35.7c-0.3-1.1,12.4-11.5,15.9-14.6
								c0.5-0.3,1.1-0.3,1.4,0.3C125,101.6,144,128.8,143.7,130.8z"/>
							<path class="st27" d="M141.2,128.6c-0.3,1.4-14,13.5-15.4,14.8s-21.2-32.4-21.4-33.5c-0.3-1.1,11.5-11,14.8-13.5
								c0.5-0.3,1.1-0.3,1.4,0C123.6,101.3,141.5,126.9,141.2,128.6z"/>
							<path class="st0" d="M132.4,111c-2.2-1.4-5.2-6-5.5-7.7c-0.3-1.6,0-3,1.1-3.3c1.1-0.3,4.9,4.7,6.9,6s4.1,4.4,3.3,6.6
								c-0.8,1.9-5.2,1.4-5.5,0.8C132.1,113.4,132.4,111,132.4,111z"/>
							<path class="st2" d="M127.5,100.5c-0.8,1.9,4.1,9.1,8.2,11l-1.6,1.6c0,0-0.8-0.3-1.6-0.3c0-0.8,0-1.9,0-1.9
								c-2.2-1.4-5.2-6-5.5-7.7C126.6,102.2,126.9,101.1,127.5,100.5z"/>
							<path class="st0" d="M137.6,118.4c-3.8-2.2-7.1-1.9-9.1-2.7c-2.2-0.8-2.5-4.1-1.1-4.7c1.4-0.5,10.4,0.8,12.6,1.9
								c2.2,1.1,3.3,5.8,3.3,5.8L137.6,118.4z"/>
							<path class="st2" d="M136,115.9c2.2,0.5,3,0,3,0c0,0.8,0.8,1.4,1.6,2.5h-3c-3.8-2.2-7.1-1.9-9.1-2.7
								c-1.1-0.3-1.6-1.4-1.9-2.2C127.5,115.1,133.8,115.4,136,115.9z"/>
							<path class="st0" d="M146.7,122c-2.2,3-12.4,1.6-14.6,1.4c-2.2-0.3-3.3-1.6-3.3-3c0.5-2.7,14-2.2,15.1-1.6
								C145.3,118.9,146.7,122,146.7,122z"/>
							<path class="st24" d="M129.1,120.9c1.4,1.4,4.7,2.2,8.5,2.5c3.3,0.3,4.9,0,5.5,0c-3.8,0.5-9.3,0-11-0.3
								C130.5,123.1,129.4,122,129.1,120.9z"/>
							<g>
								
									<linearGradient id="SVGID_18_" gradientUnits="userSpaceOnUse" x1="30.0951" y1="609.2847" x2="149.339" y2="609.2847" gradientTransform="matrix(1 0 0 1 0 -348)">
									<stop  offset="0" style="stop-color:#FF8900"/>
									<stop  offset="1" style="stop-color:#FFAE01"/>
								</linearGradient>
								<path class="st28" d="M98.3,162.9c22,11.3,25.6,10.7,34.9,15.7c9.3,4.9,6.6,58.3,6,66.5c-0.5,8.2-2.7,41-1.6,49.8
									c1.4,8.8,6,41.8,8.2,46.7c2.2,4.9,6.3,13.5,0,18.7c-6.3,4.9-19.8,8.5-49.2,6.6c-29.1-1.9-60.8-19.8-62.1-22.5
									c-1.4-2.5,14-48.9,14.6-57.7c0.5-8.8,2.5-15.4,3.3-19.5c0.8-4.1-8.2-23.4-9.9-35.7c-1.4-12.4-14.8-46.2-12.4-52.5
									c2.5-6.3,25.8-13.2,41.8-21.2C87.9,149.7,98.3,162.9,98.3,162.9z"/>
								<path class="st9" d="M115.6,170.9c-4.1-1.9-9.6-4.4-17.3-8.2c0,0-10.4-12.9-26.4-4.9c-5.5,2.7-11.8,5.5-18.1,8
									c9.3,16.2,24.7,28.6,42.3,34.6C105.7,192.9,112.6,182.4,115.6,170.9z"/>
								<path class="st9" d="M74.7,135.4c-0.3,13.2-1.1,22.3-4.1,24.7c0,0,4.9,22,25,20.1c6.9-0.5,6-12.1,2.7-17.3l1.9-16.2
									L74.7,135.4z"/>
							</g>
							<path class="st22" d="M3.5,241.8c-4.4,6-10.4,21.2-8.2,28.3c2.2,6.9,25.3,37.9,35.7,49.5c10.4,11.5,12.9,13.5,14.8,17.3
								c1.9,3.8,10.7,19.5,13.2,21.7c2.5,2.5,6.6,2.7,6.6,2.7s3.3,3.6,9.3,2.7c0,0,5.2,3.6,9.3,4.7c0,0,1.4,2.7,2.7,3
								s3.3-2.5,0.5-8.2c-2.5-5.8-6.9-8-7.4-11.8c-0.5-3.6-3.8-11-3.8-11s7.4,7.7,11.8,8c4.7,0.5,5.2-2.2,2.7-4.4
								c-2.5-2.2-5.8-5.5-8.8-9.9c-3-4.4-6.9-7.1-12.6-8s-9.9-1.4-11.3-2.5c-1.4-1.1-9.1-11.8-14.3-23.4s-9.9-26.4-22.8-39.3
								l5.8-10.2L3.5,241.8z"/>
							<path class="st24" d="M84.3,368c-1.1-3.3-3.3-6-5.5-8.2l-0.8-0.8c-0.3-0.3-0.8-0.5-0.8-0.8c-0.5-0.5-0.8-1.4-1.4-1.9
								c-0.8-1.4-1.6-2.7-2.5-4.1c0.5,1.6,1.1,3.3,1.6,4.7c0.3,0.8,0.5,1.6,1.1,2.2c0.3,0.5,0.5,0.5,0.8,0.8l0.8,0.8
								c1.1,1.1,2.2,2.5,3.3,3.6C82.1,365.3,83.2,366.6,84.3,368z"/>
							<path class="st24" d="M74.7,363.1c-0.8-1.6-1.9-3.3-2.7-4.7c-1.1-1.6-1.9-3-2.7-4.7c0,1.9,0.5,3.8,1.6,5.5
								C71.7,360.6,73,362,74.7,363.1z"/>
							<path class="st24" d="M70,363.6c-2.7-0.8-4.4-2.5-4.4-2.5s-4.1-0.3-6.6-2.7c-0.8-1.1-3-4.1-5.2-8c0,0,2.7,3,4.7,5.2
								c2.7,3.3,6.6,2.2,6.6,2.2l-0.5-3C64.5,355.4,67,362.2,70,363.6z"/>
							<path class="st24" d="M-4.8,262.4c0,2.7,0.3,5.2,4.4,12.6c4.7,8.5,33.8,44.3,40.1,51.1c6.3,6.6,6,7.1,9.9,17.6
								c-1.6-3-3-5.5-3.6-6.9c-1.9-3.8-4.1-5.8-14.8-17.3C20.8,308.1-2.3,277-4.5,270.1C-5.3,268.2-5.3,265.5-4.8,262.4z"/>
							<path class="st24" d="M18,254.2l-2.5,3.8c0,0,3.3,0.8,5.5,3.3l4.7-7.7L18,254.2z"/>
							
								<linearGradient id="SVGID_19_" gradientUnits="userSpaceOnUse" x1="-9.84" y1="566.6475" x2="51.7112" y2="566.6475" gradientTransform="matrix(1 0 0 1 0 -348)">
								<stop  offset="0" style="stop-color:#FF8900"/>
								<stop  offset="1" style="stop-color:#FFAE01"/>
							</linearGradient>
							<path class="st29" d="M45.5,232.7c6-11.8,8.5-31.1,3-41.2s-15.7-13.7-18.1-12.6s-9.3,17-15.7,24.5
								c-6.6,7.1-23.9,27.5-24.5,29.4c-0.5,1.6,12.6,15.7,37.4,25.8C30.7,259.7,45.5,232.7,45.5,232.7z"/>
							<g>
								<path d="M101.9,136.5c-1.4-5.5-1.4-11-1.6-16.5c-0.3-4.1-0.5-8-4.1-10.4c-2.7-1.9-6.3-2.2-9.3-1.6
									c-8.8,1.1-10.7,9.6-9.9,17.6c0.5,6,3,12.1,5.2,17.6c-3.3-0.3-7.7-1.9-9.6-4.4c0.8,3.6,2.5,6.6,4.9,9.3
									c-9.3-0.3-17.9-6.3-22.8-14.3c-4.9-8.2-6.6-18.1-6-27.8c0.5-11.3,4.1-22.8,11.3-31.6c14.3-17.6,41.5-19.8,58-4.7
									c5.8,5.2,9.9,12.1,11.8,19.8c2.7,9.9,2.7,20.6,0.5,30.8c-0.8,4.1-1.4,7.7-1.6,12.1c0,1.4-1.6,16.2-0.8,16.2
									c-5.8,0.3-12.6-0.8-16.5-5.2c1.6,3,3.3,6,5.2,9.1C109.3,150.8,103.8,144,101.9,136.5z"/>
								<path class="st0" d="M71.4,115.9c-2.7-1.6-5.8-2.5-8.2,0c-3.6,3.6,1.4,20.6,9.3,16.5c0,0,11.3,15.7,19.5,20.1
									c8.2,4.4,14,2.2,17-0.8c3-3,13.5-16.2,15.4-30c0.5-4.9,0-14.6,0-16.5c0.5-6.3,2.7-11.5-2.2-16.5s-12.1-8-19-8.2
									c-9.1-0.3-17.9,3.6-23.9,10.4C73,98.3,71.9,106.6,71.4,115.9z"/>
								<path class="st24" d="M64.5,120.6c0.5-3,3.3-3.6,5.2-1.6c1.9,2.2,2.5,9.3,1.9,10.2c-0.5,1.1-3.8,0.8-4.7-1.1
									c-0.5-2.2,1.4-3.6,3.3-2.7c0,0,0.5-3-1.1-5.2c-1.6-1.9-3.3-1.4-3.6-0.8C65.3,120,64.5,120.6,64.5,120.6z"/>
								<path d="M75.8,101.3c7.1-0.3,14.3-1.9,20.9-4.7c1.4-3,1.4-5.5,1.4-8.8c1.9,3.3,2.7,7.1,3,10.7c4.1-0.3,8.5-0.5,12.6-0.8
									c1.1-3.3,1.4-6.6,1.1-10.2c1.4,3.3,2.2,7.4,2.5,11c2.5-0.8,5.8,0.3,8.2,0.8c3.3-7.1,3-20.3-3.8-26.1
									c-6.9-5.5-18.4-6.9-26.7-5.8c-17.6,2.5-31.3,17-30.2,35.2c0.5,10.4,5.8,20.1,13.2,27.2C74.1,121.7,73.3,111,75.8,101.3z"/>
							</g>
						</g>
					</g>
				</g>
			</g>
		</g>
	</g>
	<g>
		<g>
			
				<linearGradient id="SVGID_20_" gradientUnits="userSpaceOnUse" x1="298.8023" y1="404.1668" x2="372.897" y2="404.1668" gradientTransform="matrix(1 0 0 1 0 -348)">
				<stop  offset="0" style="stop-color:#3054D4"/>
				<stop  offset="1" style="stop-color:#062684"/>
			</linearGradient>
			<circle class="st30" cx="335.8" cy="56.2" r="37"/>
		</g>
		<g>
			<path class="st27" d="M319,61.7c-1.1-0.4-1.8-1.3-2.4-2.2c-0.7-0.9-0.9-2-0.9-3.3s0.2-2.2,0.9-3.3c0.7-0.9,1.3-1.8,2.4-2.2
				c1.1-0.4,2.2-0.9,3.3-0.9s2,0.2,2.9,0.7c0.9,0.4,1.5,0.9,2.2,1.5l-1.8,1.8c-0.9-0.9-1.8-1.3-3.1-1.3c-0.7,0-1.3,0.2-2,0.4
				c-0.7,0.4-1.1,0.9-1.3,1.3c-0.2,0.4-0.4,1.3-0.4,2c0,0.7,0.2,1.3,0.4,2c0.2,0.7,0.9,1.1,1.3,1.3c0.7,0.2,1.3,0.4,2,0.4
				c1.3,0,2.2-0.4,3.1-1.5l1.8,1.8c-0.7,0.7-1.3,1.3-2.2,1.5c-0.9,0.4-1.8,0.7-2.9,0.7C321.2,62.6,320.1,62.1,319,61.7z"/>
			<path class="st27" d="M337.1,62.3l-2.4-3.3l0,0h-2.4v3.3h-2.9V50.2h5.3c1.1,0,2,0.2,2.9,0.4c0.9,0.2,1.3,0.9,1.8,1.5
				s0.7,1.5,0.7,2.4s-0.2,1.8-0.7,2.4c-0.4,0.7-1.1,1.1-1.8,1.5l2.6,4h-3.1L337.1,62.3L337.1,62.3z M336.4,52.9
				c-0.4-0.4-1.1-0.4-2-0.4h-2.2v4.2h2.2c0.9,0,1.5-0.2,2-0.7c0.4-0.4,0.7-0.9,0.7-1.5S336.8,53.3,336.4,52.9z"/>
			<path class="st27" d="M353.2,62.3v-7.3l-3.5,6h-1.3l-3.5-6v7.3h-2.6V50.2h2.4l4.6,7.5l4.4-7.5h2.4v12.1H353.2z"/>
		</g>
	</g>
	<g>
		<g>
			<g>
				<g>
					
						<linearGradient id="SVGID_21_" gradientUnits="userSpaceOnUse" x1="209.3425" y1="469.5079" x2="283.4372" y2="469.5079" gradientTransform="matrix(1 0 0 1 0 -348)">
						<stop  offset="0" style="stop-color:#3054D4"/>
						<stop  offset="1" style="stop-color:#062684"/>
					</linearGradient>
					<circle class="st31" cx="246.5" cy="121.5" r="37"/>
				</g>
			</g>
		</g>
		<g>
			<path class="st27" d="M235.9,124.9h-5.7l-1.1,2.6h-2.9l5.5-12.1h2.9l5.5,12.1h-2.9L235.9,124.9z M235,122.9l-2-4.9l-2,4.6h4
				V122.9z"/>
			<path class="st27" d="M252.2,127.6v-7.3l-3.5,6h-1.3l-3.5-6v7.3h-2.6v-12.1h2.4l4.6,7.5l4.4-7.5h2.4v12.1H252.2z"/>
			<path class="st27" d="M259,127.4c-0.9-0.2-1.5-0.7-2.2-1.1l0.9-2.2c0.4,0.4,1.1,0.7,1.8,0.9c0.7,0.2,1.5,0.4,2.2,0.4
				c0.9,0,1.3-0.2,1.8-0.4c0.4-0.2,0.7-0.7,0.7-0.9c0-0.2-0.2-0.4-0.4-0.7c-0.2-0.2-0.4-0.4-0.9-0.4c-0.4-0.2-0.9-0.2-1.5-0.4
				c-0.9-0.2-1.8-0.4-2.2-0.7c-0.7-0.2-1.1-0.7-1.5-1.1c-0.4-0.4-0.7-1.1-0.7-2c0-0.7,0.2-1.3,0.7-2c0.4-0.7,0.9-1.1,1.8-1.3
				c0.9-0.4,1.8-0.4,2.9-0.4c0.9,0,1.5,0,2.2,0.2s1.3,0.4,2,0.9l-0.9,2.2c-1.1-0.7-2.2-0.9-3.3-0.9c-0.9,0-1.3,0.2-1.8,0.4
				c-0.4,0.2-0.7,0.7-0.7,1.1s0.2,0.7,0.7,0.9c0.4,0.2,1.1,0.4,2,0.7c0.9,0.2,1.8,0.4,2.2,0.7c0.4,0.2,1.1,0.7,1.5,1.1
				c0.4,0.4,0.7,1.1,0.7,2c0,0.7-0.2,1.3-0.7,2c-0.4,0.7-0.9,1.1-1.8,1.3c-0.9,0.4-1.8,0.4-2.9,0.4
				C260.8,127.8,259.9,127.8,259,127.4z"/>
		</g>
	</g>
	<g>
		<g>
			<g>
				<g>
					
						<linearGradient id="SVGID_22_" gradientUnits="userSpaceOnUse" x1="394.0066" y1="454.7407" x2="468.1013" y2="454.7407" gradientTransform="matrix(1 0 0 1 0 -348)">
						<stop  offset="0" style="stop-color:#3054D4"/>
						<stop  offset="1" style="stop-color:#062684"/>
					</linearGradient>
					<circle class="st32" cx="431.1" cy="106.7" r="37"/>
				</g>
			</g>
		</g>
		<g>
			<path class="st27" d="M411.1,100.5h5.5c1.3,0,2.4,0.2,3.5,0.7c1.1,0.4,1.8,1.3,2.4,2.2c0.7,0.9,0.9,2,0.9,3.3s-0.2,2.2-0.9,3.3
				c-0.7,1.1-1.3,1.5-2.4,2.2c-1.1,0.4-2.2,0.7-3.5,0.7h-5.5V100.5z M416.4,110.4c1.3,0,2.2-0.4,2.9-1.1c0.7-0.7,1.1-1.5,1.1-2.9
				c0-1.3-0.4-2-1.1-2.9c-0.7-0.7-1.8-1.1-2.9-1.1h-2.6v7.5h2.6V110.4z"/>
			<path class="st27" d="M436.5,112.8v-7.3l-3.5,6h-1.3l-3.5-6v7.3h-2.6v-12.3h2.4l4.6,7.5l4.4-7.5h2.4v12.1h-2.9V112.8z"/>
			<path class="st27" d="M443.3,112.6c-0.9-0.2-1.5-0.7-2.2-1.1l0.9-2.2c0.4,0.4,1.1,0.7,1.8,0.9s1.5,0.4,2.2,0.4
				c0.9,0,1.3-0.2,1.8-0.4c0.4-0.2,0.7-0.7,0.7-0.9s-0.2-0.4-0.4-0.7c-0.2-0.2-0.4-0.4-0.9-0.4c-0.4-0.2-0.9-0.2-1.5-0.4
				c-0.9-0.2-1.8-0.4-2.2-0.7c-0.7-0.2-1.1-0.7-1.5-1.1s-0.7-1.1-0.7-2c0-0.7,0.2-1.3,0.7-2s0.9-1.1,1.8-1.3
				c0.9-0.4,1.8-0.4,2.9-0.4c0.9,0,1.5,0,2.2,0.2s1.3,0.4,2,0.9l-0.9,2.2c-1.1-0.7-2.2-0.9-3.3-0.9c-0.9,0-1.3,0.2-1.8,0.4
				s-0.7,0.7-0.7,1.1c0,0.4,0.2,0.7,0.7,0.9s1.1,0.4,2,0.7c0.9,0.2,1.8,0.4,2.2,0.7c0.4,0.2,1.1,0.7,1.5,1.1s0.7,1.1,0.7,2
				c0,0.7-0.2,1.3-0.7,2s-0.9,1.1-1.8,1.3s-1.8,0.4-2.9,0.4C445.1,113,444.2,112.8,443.3,112.6z"/>
		</g>
	</g>
	<g>
		<g>
			<g>
				<g>
					
						<linearGradient id="SVGID_23_" gradientUnits="userSpaceOnUse" x1="420.0504" y1="559.8473" x2="494.1451" y2="559.8473" gradientTransform="matrix(1 0 0 1 0 -348)">
						<stop  offset="0" style="stop-color:#3054D4"/>
						<stop  offset="1" style="stop-color:#062684"/>
					</linearGradient>
					<circle class="st33" cx="457.1" cy="211.8" r="37"/>
				</g>
			</g>
		</g>
		<g>
			<path class="st27" d="M446.2,206.2c0.9,0.4,1.3,0.9,1.8,1.5c0.4,0.7,0.7,1.5,0.7,2.4s-0.2,1.8-0.7,2.4c-0.4,0.7-1.1,1.1-1.8,1.5
				c-0.7,0.4-1.8,0.4-2.9,0.4h-2.4v3.3H438v-12.1h5.3C444.4,205.8,445.3,206,446.2,206.2z M445.1,211.7c0.4-0.4,0.7-0.9,0.7-1.5
				c0-0.7-0.2-1.1-0.7-1.5s-1.1-0.4-2-0.4h-2.2v4.2h2.2C444,212.2,444.6,212.2,445.1,211.7z"/>
			<path class="st27" d="M461.6,217.9v-7.3l-3.5,6h-1.3l-3.5-6v7.3h-2.6v-12.1h2.4l4.6,7.5l4.4-7.5h2.4v12.1H461.6z"/>
			<path class="st27" d="M468.5,217.7c-0.9-0.2-1.5-0.7-2.2-1.1l0.9-2.2c0.4,0.4,1.1,0.7,1.8,0.9c0.7,0.2,1.5,0.4,2.2,0.4
				c0.9,0,1.3-0.2,1.8-0.4s0.7-0.7,0.7-0.9s-0.2-0.4-0.4-0.7c-0.2-0.2-0.4-0.4-0.9-0.4c-0.4-0.2-0.9-0.2-1.5-0.4
				c-0.9-0.2-1.8-0.4-2.2-0.7c-0.7-0.2-1.1-0.7-1.5-1.1c-0.4-0.4-0.7-1.1-0.7-2c0-0.7,0.2-1.3,0.7-2c0.4-0.7,0.9-1.1,1.8-1.3
				c0.9-0.4,1.8-0.4,2.9-0.4c0.9,0,1.5,0,2.2,0.2c0.7,0.2,1.3,0.4,2,0.9l-0.9,2.2c-1.1-0.7-2.2-0.9-3.3-0.9c-0.9,0-1.3,0.2-1.8,0.4
				c-0.4,0.2-0.7,0.7-0.7,1.1c0,0.4,0.2,0.7,0.7,0.9c0.4,0.2,1.1,0.4,2,0.7c0.9,0.2,1.8,0.4,2.2,0.7c0.4,0.2,1.1,0.7,1.5,1.1
				c0.4,0.4,0.7,1.1,0.7,2c0,0.7-0.2,1.3-0.7,2c-0.4,0.7-0.9,1.1-1.8,1.3c-0.9,0.2-1.8,0.4-2.9,0.4
				C470.2,218.1,469.3,218.1,468.5,217.7z"/>
		</g>
	</g>
</g>
</svg>
