<?xml version="1.0" encoding="utf-8"?>
<!-- Generator: Adobe Illustrator 24.1.0, SVG Export Plug-In . SVG Version: 6.00 Build 0)  -->
<svg version="1.1" id="Layer_1" xmlns="http://www.w3.org/2000/svg" xmlns:xlink="http://www.w3.org/1999/xlink" x="0px" y="0px"
	 viewBox="0 0 500 500" style="enable-background:new 0 0 500 500;" xml:space="preserve">
<style type="text/css">
	.st0{fill:#EBEBEB;}
	.st1{fill:#FFFFFF;}
	.st2{fill:#F1F1F1;}
	.st3{fill:#FAFAFA;}
	.st4{fill:#F7F7F7;}
	.st5{fill:#F5F5F5;}
	.st6{fill:#E8505B;}
	.st7{fill:url(#SVGID_1_);}
	.st8{fill:url(#SVGID_2_);}
	.st9{fill:url(#SVGID_3_);}
	.st10{fill:#263238;}
	.st11{fill:url(#SVGID_4_);}
	.st12{fill:url(#SVGID_5_);}
	.st13{fill:url(#SVGID_6_);}
	.st14{fill:#FFBE97;}
	.st15{fill:none;}
	.st16{fill:#595959;}
	.st17{fill:#BB9132;}
	.st18{fill:#FBC343;}
	.st19{opacity:0.6;fill:#FFFFFF;enable-background:new    ;}
	.st20{fill:url(#SVGID_7_);}
	.st21{fill:url(#SVGID_8_);}
	.st22{fill:url(#SVGID_9_);}
	.st23{fill:url(#SVGID_10_);}
	.st24{fill:url(#SVGID_11_);}
	.st25{fill:url(#SVGID_12_);}
	.st26{fill:url(#SVGID_13_);}
	.st27{fill:url(#SVGID_14_);}
	.st28{fill:url(#SVGID_15_);}
	.st29{fill:url(#SVGID_16_);}
	.st30{fill:#353535;}
	.st31{fill:#708CD5;}
	.st32{fill:url(#SVGID_17_);}
	.st33{fill:#6F3428;}
</style>
<g id="Background">
</g>
<g>
	<g>
		<g>
			<polygon class="st0" points="258.7,206.3 192,149.3 192.7,148.3 258.3,204.7 338,102.7 369.7,125.3 433.7,41 434.3,41.7 
				369.7,127 338.3,104.3 			"/>
		</g>
		<g>
			<path class="st0" d="M27.3,297.7c0,2-1.7,3.7-3.7,3.7s-3.7-1.7-3.7-3.7c0-2,1.7-3.7,3.7-3.7S27.3,295.7,27.3,297.7z"/>
		</g>
		<g>
			<circle class="st0" cx="192.3" cy="148.7" r="7"/>
		</g>
		<g>
			<polygon class="st0" points="24,298 23.3,297.3 101,211.7 118.7,226.7 188.7,151.3 189.3,152.3 118.7,228.3 101.3,213 			"/>
		</g>
		<g>
			<g>
				<circle class="st0" cx="434.3" cy="38.3" r="9.3"/>
			</g>
			<g>
				<g>
					<path class="st1" d="M439,35c0,0-1.7,2.3-4,5c-0.7,0.7-1,1-1.7,1.7V42H433c-2-1.3-3.3-2.7-3-2.7c0,0,1.3,0.7,3.3,2.3H433
						c0.3-0.7,1-1,1.7-1.7C436.7,37,438.7,35,439,35z"/>
				</g>
			</g>
		</g>
	</g>
	<g>
		<g>
			<path class="st2" d="M133.7,139c1-6.7-8.3-12-15.3-12.7c-3.3-0.3-7,0.3-10-1c-7-2.3-9.7-11.3-16.3-14c-5-2-10.7-0.3-15.7,2.3
				c-5,2.3-9.7,5.7-15,6c-4.7,0.3-10-1.3-14,1c-3,1.7-4.7,5.3-7.7,7.3c-2.7,2-6.3,2.3-10,2.7c-3.3,0.3-7,0.3-10.3,1.7
				c-3,1.3-5.7,4.7-5,8L133.7,139z"/>
		</g>
	</g>
	<g>
		<g>
			<path class="st2" d="M463.3,115c0.3-2.3-3-4-5.3-4.3c-1,0-2.3,0-3.3-0.3c-2.3-0.7-3.3-3.7-5.3-4.7c-1.7-0.7-3.7,0-5.3,0.7
				s-3.3,2-5,2s-3.3-0.3-4.7,0.3c-1,0.7-1.7,1.7-2.7,2.3s-2,1-3.3,1c-1,0-2.3,0-3.3,0.7c-1,0.3-2,1.7-1.7,2.7L463.3,115z"/>
		</g>
	</g>
	<g>
		<g>
			<path class="st3" d="M139,64.3c0.3-2.3-3-4-5.3-4.3c-1,0-2.3,0-3.3-0.3C128,59,127,56,125,55c-1.7-0.7-3.7,0-5.3,0.7
				c-1.7,0.7-3.3,2-5,2s-3.3-0.3-4.7,0.3c-1,0.7-1.7,1.7-2.7,2.3c-1,0.7-2,1-3.3,1c-1,0-2.3,0-3.3,0.7c-1,0.3-2,1.7-1.7,2.7
				L139,64.3z"/>
		</g>
	</g>
	<g>
		<polygon class="st4" points="130.3,284.7 151.3,237.7 173,224.7 186.7,195.3 225.3,204.3 254.3,293 209.7,315 173,337.3 		"/>
	</g>
	<g>
		<path class="st4" d="M461.7,344.7L444,318.3l-20.7-96.7l-25-21l-25.3,35l-34.7,8.7L306.7,275l64,68l37.7,39.7l29.3,55
			c0,0,63,60.7,62.3,60C499.3,497,461.7,344.7,461.7,344.7z"/>
	</g>
	<g>
		<polygon class="st4" points="0,497.7 9.3,448 29.7,418 38.3,352 63.3,337.3 93.7,285.7 123,266 183.7,326 223.3,283 254.3,293 
			241.7,309 209.7,315 146.3,370 97.3,397.3 84.3,420.7 56,425 		"/>
	</g>
	<g>
		<g>
			<path d="M361.3,449c0,0-0.3,0-0.7,0c-0.3,0-1,0-1.7,0c-1.7,0-4,0-6.7,0c-5.7,0-13.7,0-22.3,0h0.3c-1.3,1.7-2.7,3-4,4.7
				c-6.7,8-12.7,15.3-17,20.3c-2,2.7-4,4.7-5.3,6.3c-0.7,0.7-1,1.3-1.3,1.7c-0.3,0.3-0.7,0.7-0.7,0.7s0-0.3,0.3-0.7
				c0.3-0.3,0.7-1,1.3-1.7c1.3-1.7,3-3.7,5-6.3c4.3-5.3,10.3-12.7,16.7-20.7c1.3-1.7,2.7-3.3,4-4.7l0,0l0,0c9,0,16.7,0,22.3,0
				c2.7,0,5,0,6.7,0c0.7,0,1.3,0,1.7,0C361,449,361.3,449,361.3,449z"/>
		</g>
	</g>
	<g>
		<polygon class="st5" points="248.3,402 182,399.7 163.7,423.3 134.7,436.3 119,470 137.3,448.7 172.7,442.7 197.7,416.3 		"/>
	</g>
	<g>
		<g>
			<path class="st0" d="M0,497.7c0.7-1,2.7-3.3,3.7-5c2.7-3.3,6.3-8,11-14.3c9.7-12.7,23.7-30.7,41-53.3l0,0l0,0
				c9-1.3,18.3-2.7,28.3-4.3l0,0c4-7.3,8.7-15.3,13-23.7l0,0l0,0c15-8.3,31.7-17.3,49-27l0,0c19.3-17,40.7-35.7,63-55l0,0l0,0
				c10.3-2,21-4,32-6.3l0,0c5.3-6.3,10.7-13.3,16.3-20.3c5.3-6.3,10.3-13,15.3-19.3l0,0h0.3c11.7,2.7,23.3,5.3,35,7.7l0,0l0,0
				c37,39.3,71.3,75,100,105.3l0,0l0,0c11,20.7,21,39.3,29.3,55l0,0c17.7,17,32,30.3,41.7,39.3c4.7,4.7,8.7,8,11,10.3
				c1.3,1.3,2.3,2,3,2.7c0.7,0.7,6.7,7.7,6.7,7.7H0V497.7z"/>
		</g>
	</g>
	<g>
		<g>
			<path d="M103.7,478L103.7,478L103.7,478c11-2,23.7-4,38-6.3l0,0c3.3-3.3,6.3-6.7,10-10.3c6-6.3,11.7-12.3,17-17.7l0,0l0,0
				C186,439,201.3,435,212,432c5.3-1.3,9.7-2.7,12.7-3.3c1.3-0.3,2.7-0.7,3.3-1c0.3,0,0.7,0,1-0.3c0.3,0,0.3,0,0.3,0s0,0-0.3,0
				c-0.3,0-0.7,0-1,0.3c-0.7,0.3-2,0.7-3.3,1c-3,0.7-7.3,2-12.7,3.3c-10.7,3-25.7,7-43.3,12l0,0c-5.3,5.7-11,11.7-17,17.7
				c-3.3,3.3-6.7,7-10,10.3l0,0l0,0c-7,1-32.3,5.3-37.7,6.3l0,0"/>
		</g>
	</g>
	<g>
		<g>
			<path d="M314.3,441c0,0-15.3,0.3-34.3,0.3s-34.3,0-34.3-0.3s15.3-0.3,34.3-0.3C299,440.7,314.3,440.7,314.3,441z"/>
		</g>
	</g>
	<g>
		<g>
			<g>
				<path class="st6" d="M146,333.7c-1.7,2.3-5,1.7-6.7,0c-1.7-1.3-2.3-3.7-2.7-5.7c-1.3-4.7-2.7-9.7-1.7-14.3c0.3-1.3,1-3,2-4
					c1-1,2.7-1.7,4-1.3c1.7,0.3,2.7,2,3.3,3.7c2.3,4.7,3.3,9.7,3.3,14.7C147.7,329,147.3,331.7,146,333.7"/>
			</g>
		</g>
		<g>
			<g>
				
					<linearGradient id="SVGID_1_" gradientUnits="userSpaceOnUse" x1="134.5346" y1="669.7083" x2="147.5998" y2="669.7083" gradientTransform="matrix(1 0 0 1 0 -348)">
					<stop  offset="0" style="stop-color:#DF2827"/>
					<stop  offset="1" style="stop-color:#9E005D"/>
				</linearGradient>
				<path class="st7" d="M146,333.7c-1.7,2.3-5,1.7-6.7,0c-1.7-1.3-2.3-3.7-2.7-5.7c-1.3-4.7-2.7-9.7-1.7-14.3c0.3-1.3,1-3,2-4
					c1-1,2.7-1.7,4-1.3c1.7,0.3,2.7,2,3.3,3.7c2.3,4.7,3.3,9.7,3.3,14.7C147.7,329,147.3,331.7,146,333.7"/>
			</g>
		</g>
		<g>
			<g>
				
					<linearGradient id="SVGID_2_" gradientUnits="userSpaceOnUse" x1="124.8507" y1="698.372" x2="142.9208" y2="698.372" gradientTransform="matrix(1 0 0 1 0 -348)">
					<stop  offset="0" style="stop-color:#DF2827"/>
					<stop  offset="1" style="stop-color:#9E005D"/>
				</linearGradient>
				<path class="st8" d="M139.7,346c-2.7-1.3-6-1.7-9.3-1c-1.7,0.3-3.3,0.7-4.7,2c-1,1.3-1.3,3.3,0,4.7c0.7,0.7,2,0.7,3,0.7
					c2.3,0,5-0.3,7,1c1,1,2,2.3,3.3,2.7c1.3,0.3,2.7-0.3,3.3-1.7c0.7-1.3,0.7-2.7,0.3-4C142.7,350.3,142.3,347.3,139.7,346z"/>
			</g>
		</g>
		<g>
			<g>
				
					<linearGradient id="SVGID_3_" gradientUnits="userSpaceOnUse" x1="148.8794" y1="675.171" x2="170.4259" y2="675.171" gradientTransform="matrix(1 0 0 1 0 -348)">
					<stop  offset="0" style="stop-color:#DF2827"/>
					<stop  offset="1" style="stop-color:#9E005D"/>
				</linearGradient>
				<path class="st9" d="M150.7,337c-2-2.3-2.3-5.3-1.3-8.3c0.7-2.7,2.7-5,5-7c2.7-2.3,5.3-4,8.7-5c1.3-0.3,2.7-0.7,4-0.7
					c1.3,0,2.7,0.7,3.3,2c1,1.7,0,4-1,5.7c-1.7,3-3.7,6-5.7,8.7c-1.7,2.3-3.7,4.3-6.3,5.3C154.7,338.7,151.7,338.7,150.7,337"/>
			</g>
		</g>
		<g>
			<g>
				<g>
					<path class="st10" d="M146,370.3c0,0,0-0.3,0-1c0-0.7-0.3-1.7-0.3-3s-0.3-2.7-0.7-4.3c-0.3-1.7-1-3.3-1.7-5.3
						c-0.7-1.7-1.7-3.3-2.7-4.7s-2.3-2.3-3.3-2.7c-1-0.7-2-0.7-3-1c-0.7,0-1,0-1,0s0.3,0,1,0c0.7,0,1.7,0.3,3,0.7
						c1.3,0.7,2.3,1.7,3.7,3c1,1.3,2,3,2.7,5c0.7,2,1.3,3.7,1.7,5.3s0.3,3.3,0.7,4.7c0,1.3,0,2.3,0,3C146,370,146,370.3,146,370.3z"
						/>
				</g>
			</g>
		</g>
		<g>
			<g>
				<g>
					<path class="st10" d="M146,368c0,0,0-0.3,0-0.7s0-1,0-1.3c0-1.3,0-3,0-5.3c0-4.7-0.7-11-1.3-18c-0.7-7-1.7-13.3-2.7-17.7
						c-0.3-1-0.3-2-0.7-3s-0.3-1.7-0.7-2.3c0-0.7-0.3-1-0.3-1.3c0-0.3,0-0.7,0-0.7s0,0,0.3,0.3c0,0.3,0.3,1,0.3,1.3
						c0.3,0.7,0.3,1.3,0.7,2.3c0.3,1,0.3,2,0.7,3c1,4.3,2,10.7,3,17.7c0.7,7,1,13.3,1,18c0,2.3,0,4,0,5.3c0,0.7,0,1,0,1.3
						C146,368,146,368,146,368z"/>
				</g>
			</g>
		</g>
		<g>
			<g>
				<g>
					<path class="st10" d="M146,356c0,0,0-0.7,0-1.7s0.3-2.3,0.3-4.3c0.3-1.7,0.7-3.7,1.3-6c0.7-2.3,1.3-4.7,2.7-7.3
						c2-5,5-9,7.3-11.7c0.7-0.7,1.3-1,1.7-1.7c0.3-0.3,0.7-0.3,0.7-0.7c0.3-0.3,0.3-0.3,0.7-0.3c0.7-0.7,1.3-1,1.3-0.7
						c0,0-2,1.3-4.3,3.7c-2.3,2.7-5.3,6.7-7.3,11.7c-1,2.3-2,5-2.7,7c-0.7,2.3-1,4.3-1.3,6c-0.3,1.7-0.7,3-0.7,4
						C146,355.3,146,356,146,356z"/>
				</g>
			</g>
		</g>
	</g>
	<g>
		<g>
			<g>
				<g>
					<g>
						
							<linearGradient id="SVGID_4_" gradientUnits="userSpaceOnUse" x1="444.3763" y1="759.1622" x2="455.1929" y2="759.1622" gradientTransform="matrix(1 0 0 1 0 -348)">
							<stop  offset="0" style="stop-color:#DF2827"/>
							<stop  offset="1" style="stop-color:#9E005D"/>
						</linearGradient>
						<path class="st11" d="M453.3,401.7c-2,0-4,1-5.3,2.3c-1.3,1.3-2.3,3.3-3,5c-1.3,3.7-0.7,8,0,11.7c4-1.3,6.7-5.3,8-7.3
							C455,409.7,456.7,402.3,453.3,401.7"/>
					</g>
				</g>
			</g>
		</g>
		<g>
			<g>
				<g>
					<g>
						
							<linearGradient id="SVGID_5_" gradientUnits="userSpaceOnUse" x1="431.1308" y1="767.2598" x2="440.2467" y2="767.2598" gradientTransform="matrix(1 0 0 1 0 -348)">
							<stop  offset="0" style="stop-color:#DF2827"/>
							<stop  offset="1" style="stop-color:#9E005D"/>
						</linearGradient>
						<path class="st12" d="M438.7,425c1.3-1.7,1.7-4,1-6.3c-0.7-2-2.3-3.7-4.3-4.7c-1-0.3-2-0.7-3-0.3c-1,0.3-1.3,1.3-1.3,2.3
							s0.3,2,0.7,2.7C433.7,422,435.7,424.3,438.7,425"/>
					</g>
				</g>
			</g>
		</g>
		<g>
			<g>
				<g>
					<g>
						<g>
							<path class="st10" d="M438,437c0,0,0-0.3,0.3-0.7c0-0.3,0.3-1.3,0.3-2c0.3-1.7,0.7-4.3,0.7-7.3c-0.3-3-1.3-5.3-2.3-6.7
								c-0.7-0.7-1-1.3-1.3-1.7c-0.3-0.3-0.7-0.3-0.7-0.3s1,0.7,2,2.3c1,1.7,2,4,2,6.7c0.3,2.7-0.3,5.3-0.7,7
								C438,436,438,437,438,437z"/>
						</g>
					</g>
				</g>
			</g>
		</g>
		<g>
			<g>
				<g>
					<g>
						<g>
							<path class="st10" d="M451.7,407c0,0-0.3,0.3-0.7,1c-0.3,0.7-1,2-1.7,3.3c-1.3,2.7-3.3,6.3-5,10.7c-2,4.3-3.7,8-4.7,11
								c-0.7,1.3-1,2.7-1.3,3.3c-0.3,0.7-0.3,1.3-0.3,1.3s0.3-0.3,0.7-1.3c0.3-1,1-2,1.3-3.3c1.3-2.7,3-6.7,4.7-11
								c2-4.3,3.7-8,5-10.7c0.7-1.3,1-2.3,1.7-3.3C451.3,407.7,451.7,407,451.7,407z"/>
						</g>
					</g>
				</g>
			</g>
		</g>
		<g>
			<g>
				<g>
					<g>
						
							<linearGradient id="SVGID_6_" gradientUnits="userSpaceOnUse" x1="443.2467" y1="774.623" x2="458.1322" y2="774.623" gradientTransform="matrix(1 0 0 1 0 -348)">
							<stop  offset="0" style="stop-color:#DF2827"/>
							<stop  offset="1" style="stop-color:#9E005D"/>
						</linearGradient>
						<path class="st13" d="M443.3,429.3c2.3-4,7-6.7,11.7-6.7c1.3,0,2.7,0.3,3,1.3c0.3,1-0.3,2.3-1,3
							C453.3,430.7,447.7,431.7,443.3,429.3"/>
					</g>
				</g>
			</g>
		</g>
		<g>
			<g>
				<g>
					<g>
						<g>
							<path class="st10" d="M453,425.7c0,0-0.3,0-0.7,0c-0.3,0-0.7,0-1,0c-0.3,0-0.7,0-1.3,0.3c-1,0-2,0.3-3,1c-1,0.3-2.3,1-3.3,2
								c-1,0.7-2,1.7-2.7,2.7c-0.7,1-1.3,1.7-1.7,2.7c-0.3,0.3-0.3,0.7-0.7,1c0,0.3-0.3,0.7-0.3,0.7c0,0.3-0.3,0.7-0.3,0.7
								s0.3-1,1.3-2.3c0.3-0.7,1-1.7,2-2.3c0.7-1,1.7-1.7,2.7-2.3c1-0.7,2.3-1.3,3.3-1.7c1-0.3,2-0.7,3-1C452,426,453,426,453,425.7
								z"/>
						</g>
					</g>
				</g>
			</g>
		</g>
	</g>
	<g>
		<path class="st14" d="M265.7,148.3l-0.3-3v-1.7L265,139c-1,1-2.3,2-4,2.3c-5,1-10.3,0-15-2.7l0,0l1,12.3c0.7,1.7,1.3,3.3,2,5.3
			c4,1.7,10.3,3,17-1.7C266,152.7,265.7,150.3,265.7,148.3z"/>
		<path class="st15" d="M262,297.3c-0.3,0.3-0.3,1-0.7,1.3c-1,2.7-2,5.3-3.3,8h-0.3L225,398c3,2,6,4.7,8.3,7.3c1,1,2,2,3,3
			c0.3,0,1,0,1.3-0.3c9.7-1,18.3-6.3,24.7-13.7c0.7-0.7,1.3-1.7,2-2.3C266.3,358.3,266.7,322.7,262,297.3z"/>
		<path class="st14" d="M265.7,423c5.7,1.3,12.3,1.3,18.3,1v-8h-18.3V423z"/>
		<path d="M265.7,423l-1,17.7h39c-5-8-11.7-10.7-19.7-11.7v-5.3C278,424.7,271.3,424.3,265.7,423z"/>
		<path d="M194.3,425l-1.7,3.7c-8,1-15,5.3-21.7,12h38l4-15.7C206.3,426.3,200.3,426.3,194.3,425z"/>
		<path class="st14" d="M194.3,425c6,1,12,1,18.7,0l2.3-8.7h-17L194.3,425z"/>
		<path d="M271.3,104c-1.7-7-7.3-10.7-12-5c-10.3-3-20.3-3.7-25,5.7c0,0-14,7.3-2.7,19c1.3-1,3-1.3,4.3-0.7l0,0
			c1.3,0.7,2.3,1.7,3.3,3.3c1.7-2.3,2.7-6.3,1-14l0,0l0.3,0.3c0.7,0.7,1.3,1.3,2.3,2.3c5.3,3.7,12.3,4,22-0.3l0,0
			C265.3,114.7,273,111.7,271.3,104z"/>
		<path class="st14" d="M218,258.7l-11-1.3c-0.3,2.7-0.7,5.3-0.7,5.3s-2.7,2.7-3.7,5.3c-0.3,1-0.3,1.7-0.3,2.7
			c0.3,1,0.7,1.7,1.7,2.3c4.7,4,10,4,13,1l0,0c0.3-0.7,0.3-1.7,0.7-2.3c0.3-2.3,0.3-5-0.7-8L218,258.7z"/>
		<g>
			<g>
				<path class="st16" d="M199.3,267.7l-2,9.3l-0.7,3.7l2.3,0.7l1-3.7l1.3-7l1.3,0.3c-0.3-1,0-1.7,0.3-2.7L199.3,267.7z"/>
				<path class="st16" d="M217.7,272c0,0.7-0.3,1.7-0.7,2.3l0,0l1.7,0.3L217,282l-1,4.3l2.3,0.7l1-4l2.3-10L217.7,272z"/>
			</g>
		</g>
		<g>
			<path class="st17" d="M332,69.3l-9,5.3l5,7.3l1,1.3c0-0.3,0-0.7,0.3-0.7c0.3-1,0.7-2,1.3-2.3c0.7-0.7,1.3-1,2-0.7
				c0.3,0,0.7,0.3,0.7,1c0-2,0.7-3.7,2-4.7L332,69.3z"/>
			<path class="st17" d="M341.7,88.7c-0.7,0-1.3,0.3-2,0.3c-2.3,0-5.7-3-6.7-7c0,0.7,0,1.3-0.3,2.3c-0.3,1-0.3,2.7-1,3.7l5.3,7.3
				l3-2l3-2L341.7,88.7z"/>
		</g>
		<polygon class="st18" points="332,69.3 323,75 323,75 		"/>
		<path class="st18" d="M323.3,46.3c-1-1.7-2.7-2.7-3.7-2s-1,2.7,0,4.3c1,1.7,2.7,2.7,3.7,2C324.3,50,324.3,48,323.3,46.3z"/>
		<path class="st19" d="M323.3,46.3c-1-1.7-2.7-2.7-3.7-2s-1,2.7,0,4.3c1,1.7,2.7,2.7,3.7,2C324.3,50,324.3,48,323.3,46.3z"/>
		<g>
			
				<linearGradient id="SVGID_7_" gradientUnits="userSpaceOnUse" x1="322.7776" y1="382.6662" x2="324.5043" y2="382.6662" gradientTransform="matrix(1 0 0 1 0 -348)">
				<stop  offset="0" style="stop-color:#FF8900"/>
				<stop  offset="1" style="stop-color:#FFAE01"/>
			</linearGradient>
			<path class="st20" d="M324,35.7l0.3-0.3l-0.7-1.7l-0.3,0.3c-0.3,0.3-0.3,0.3-0.7,0.7L324,35.7z"/>
			
				<linearGradient id="SVGID_8_" gradientUnits="userSpaceOnUse" x1="330.0818" y1="400.3327" x2="332.0648" y2="400.3327" gradientTransform="matrix(1 0 0 1 0 -348)">
				<stop  offset="0" style="stop-color:#FF8900"/>
				<stop  offset="1" style="stop-color:#FFAE01"/>
			</linearGradient>
			<path class="st21" d="M330,53.3l1.7,0.7c0-0.3,0.3-0.7,0.3-1l-1-2.3C330.7,51.7,330.3,52.7,330,53.3z"/>
			<g>
				
					<linearGradient id="SVGID_9_" gradientUnits="userSpaceOnUse" x1="288.5693" y1="402.9622" x2="335.9515" y2="402.9622" gradientTransform="matrix(1 0 0 1 0 -348)">
					<stop  offset="0" style="stop-color:#FF8900"/>
					<stop  offset="1" style="stop-color:#FFAE01"/>
				</linearGradient>
				<path class="st22" d="M335.3,61.3l-3.3-8c0,0.3-0.3,0.7-0.3,1l-1.7-1c0.3-1,0.7-1.7,1-2.7L324.3,35l-0.3,0.3l-1.3-1
					c0.3-0.3,0.3-0.3,0.7-0.7L294.7,51c0.3,0,0.7,0,1-0.3l0.3,1.7l0,0l11,13.3c-10.3-1.3-16.7-5.7-16.7-9c0-2,2-3.3,5.7-4.3
					l-1.3-1.3l0,0c-5.7,1.3-6.3,4.3-6.3,5.7c0.3,4.3,7.7,9.7,20,11l-1.7-2c0.7,0,1.3,0,2,0.3v1.7h-0.3l5.3,6.3c2,2.3,5.3,3,7.7,1.3
					l1.3-0.7l0,0l9-5.3l0,0l1.3-0.7C335.7,67,336.7,64,335.3,61.3z M323.3,50.7c-1,0.7-2.7-0.3-3.7-2s-1-3.7,0-4.3s2.7,0.3,3.7,2
					C324.3,48,324.3,50,323.3,50.7z"/>
				
					<linearGradient id="SVGID_10_" gradientUnits="userSpaceOnUse" x1="323.3326" y1="390.0447" x2="334.7908" y2="390.0447" gradientTransform="matrix(1 0 0 1 0 -348)">
					<stop  offset="0" style="stop-color:#FF8900"/>
					<stop  offset="1" style="stop-color:#FFAE01"/>
				</linearGradient>
				<path class="st23" d="M324.7,35.3c2.3-2.7,4.3-3.7,6-2.7c3,1.7,3.7,9,0.7,18.3l1,2.3c4.3-11,3-20-0.7-22c-1-0.7-4-1.7-8,3
					l0.7-0.3L324.7,35.3z"/>
			</g>
			
				<linearGradient id="SVGID_11_" gradientUnits="userSpaceOnUse" x1="307.0388" y1="414.9992" x2="309.0841" y2="414.9992" gradientTransform="matrix(1 0 0 1 0 -348)">
				<stop  offset="0" style="stop-color:#FF8900"/>
				<stop  offset="1" style="stop-color:#FFAE01"/>
			</linearGradient>
			<path class="st24" d="M309,66.3c-0.7,0-1.3,0-2-0.3l1.7,2h0.3V66.3z"/>
			
				<linearGradient id="SVGID_12_" gradientUnits="userSpaceOnUse" x1="294.8119" y1="399.8327" x2="296.0379" y2="399.8327" gradientTransform="matrix(1 0 0 1 0 -348)">
				<stop  offset="0" style="stop-color:#FF8900"/>
				<stop  offset="1" style="stop-color:#FFAE01"/>
			</linearGradient>
			<path class="st25" d="M296,52.7L296,52.7l-0.3-1.7c-0.3,0-0.7,0-1,0.3l0,0L296,52.7z"/>
			
				<linearGradient id="SVGID_13_" gradientUnits="userSpaceOnUse" x1="269.1065" y1="382.1662" x2="290.6393" y2="382.1662" gradientTransform="matrix(1 0 0 1 0 -348)">
				<stop  offset="0" style="stop-color:#FF8900"/>
				<stop  offset="1" style="stop-color:#FFAE01"/>
			</linearGradient>
			<polygon class="st26" points="290.7,36 270,29.7 269,32.3 290,38.7 			"/>
			
				<linearGradient id="SVGID_14_" gradientUnits="userSpaceOnUse" x1="310.5041" y1="361.3331" x2="316.9127" y2="361.3331" gradientTransform="matrix(1 0 0 1 0 -348)">
				<stop  offset="0" style="stop-color:#FF8900"/>
				<stop  offset="1" style="stop-color:#FFAE01"/>
			</linearGradient>
			<polygon class="st27" points="317,3 314.3,2.3 310.7,24 313,24.3 			"/>
			
				<linearGradient id="SVGID_15_" gradientUnits="userSpaceOnUse" x1="285.9496" y1="365.9997" x2="299.9178" y2="365.9997" gradientTransform="matrix(1 0 0 1 0 -348)">
				<stop  offset="0" style="stop-color:#FF8900"/>
				<stop  offset="1" style="stop-color:#FFAE01"/>
			</linearGradient>
			<polygon class="st28" points="300,26.3 288.3,8 286,9.7 297.7,28 			"/>
		</g>
		
			<linearGradient id="SVGID_16_" gradientUnits="userSpaceOnUse" x1="247.2437" y1="487.0407" x2="347.2207" y2="681.4047" gradientTransform="matrix(1 0 0 1 0 -348)">
			<stop  offset="0" style="stop-color:#DF2827"/>
			<stop  offset="1" style="stop-color:#9E005D"/>
		</linearGradient>
		<path class="st29" d="M335,105.7l-2.3,1.7l-0.3-2l0,0l-0.3-3.7l-8.7-6l0,0l-1.3-1c-13,21.7-25.3,40.7-36.7,49.7
			c-1.7,1.3-3.7,2-6,2c-4.3-0.3-8.7,0.3-13.7,1.3v0.3l0,0c0,2.3,0,4.3,0.3,6.7c-6.7,4.7-13,3.3-17,1.7c-0.7-1.7-1.3-3.3-2-5.3l0,0
			l0,0c-31,11.3-39.7,49.3-44,106l4.3,0.7l11,1.3l2.7,0.3l12-56.3l-3.3,48.7c0,0,1.3-0.3,3.3-0.7c10.7-1.7,45-7.3,60.7-11.3l0,0
			c4-1,6.7-2,7.7-2.7c-4.3-14.7-4.3-38.3-8-56.7L335,105.7z M267,163.7l-0.7-7.7L267,163.7L267,163.7z"/>
		<path class="st30" d="M224.3,315.3l7-29l-6.3-1.7l-5.7-1.7l-1,4l-2.3-0.7l1-4.3l-17-4.3l-0.7,3.7l-2.7-0.7l1-4l-11.7-3.3
			l-2.7,11.7c4.7,9.3,13.3,21,30.3,27c-17-6.3-26-17.7-30.3-27l-6,24.7l38.3,14.7l6,2.3L224.3,315.3c-1.7-0.3-3.3-0.7-4.7-1
			C221,314.7,222.7,315,224.3,315.3z"/>
		<path class="st31" d="M261.3,298.7c0.3-0.3,0.3-1,0.7-1.3c0-0.3-0.3-1-0.3-1.3l-4,10.7h0.3C259.3,304,260.3,301.3,261.3,298.7z"/>
		
			<linearGradient id="SVGID_17_" gradientUnits="userSpaceOnUse" x1="193.5576" y1="676.1631" x2="295.5162" y2="676.1631" gradientTransform="matrix(1 0 0 1 0 -348)">
			<stop  offset="0" style="stop-color:#09005D"/>
			<stop  offset="1" style="stop-color:#1A0F91"/>
		</linearGradient>
		<path class="st32" d="M293.7,239.7c-15.7,4-50,9.7-60.7,11.3l-8,33.7l6.3,1.7l-7,29l-2.7,11.3l-6-2.3l-15.3,64.3l-6.7,28h4.7l0,0
			h17h3.3l6.7-18.7l32.7-91.3h-0.3h0.3l4-10.7c0,0.3,0.3,1,0.3,1.3c1-2.3,1.7-4.7,2.3-6.7c1-2.7,2-5.7,2.7-8.3c1-2.7,7,14,7.7,11
			l-5.3-19.3c-0.7,2.7-1.7,5.7-2.3,8.3c-1,2.7-1.7,5.7-2.7,8.3c-0.7,2.3-1.7,4.7-2.3,6.7c5,25.7,1.7,111,1.3,118.7h2.7h18.3h2
			C288.7,402.7,299.7,285,293.7,239.7z M260,298c-0.3,1.3-0.7,2.7-1.3,4C259.3,300.7,259.7,299.3,260,298c1-2.7,2-5.7,2.7-8.3
			c0.3-0.7,0.3-1,0.7-1.7c-0.3,0.7-0.3,1-0.7,1.7C262,292.7,261,295.3,260,298z M269,273.7c-0.3,1-1,2.3-1.3,3.3
			C268.3,275.7,268.7,274.7,269,273.7L269,273.7L269,273.7z"/>
		<path class="st14" d="M266,117.7c-0.3-1-0.7-2.3-0.7-3.3c-9.7,4.3-17,4-22,0.3l0,0l0,0c-1-0.7-1.7-1.3-2.3-2.3l0,0l-0.3-0.3l0,0
			l0.3,0.3l0,0l-0.3-0.3c1.7,7.7,0.7,11.7-1,14l0,0c-1-1.3-2.3-2.7-3.3-3.3l0,0c-1.7-0.7-3.3-0.3-4.3,0.7s-1.7,2.3-1.7,3.7
			c0.3,5,3.3,6,8,4.7l0,0c2,2.7,4.7,5,8,6.7c4.7,2.7,10,3.7,15,2.7c1.7-0.3,3-1.3,4-2.3v-1.3v1.3l0,0V137v1.7
			C269,134.3,267.7,125,266,117.7z"/>
		<g>
			<polygon class="st14" points="340.3,93.7 337.3,95.3 337.3,95.3 			"/>
			<path class="st14" d="M345.3,84c0-0.3,0-0.3,0-0.7c-0.7-5.7-6.7-9.3-9-8.3c-0.3,0.3-0.7,0.3-1,0.7c-1.3,1-2,2.7-2,4.7
				c-0.3-0.7-0.3-1-0.7-1c-0.7,0-1.3,0-2,0.7s-1,1.3-1.3,2.3c0,0.3,0,0.7-0.3,0.7l-1-1.3l-4.7,14l8.3,5.7l-0.3-2.3l6-3.7L332,88
				c0.3-1,0.7-2.7,1-3.7c0.3-0.7,0.3-1.7,0.3-2.3c1,4,4.3,7,6.7,7c0.7,0,1.3,0,2-0.3l1.7,3l0.3-0.3C345,88.7,345.7,86.3,345.3,84z"
				/>
		</g>
		<g>
			<path class="st1" d="M265.7,199l-19-17.7l0.3-0.3l0,0l0,0c0.3-0.3,0.7-1,1-1.3c0.7-0.7,1-1.3,1.7-2c0.7-0.7,1-1.3,1.7-2l0.7-1
				l21.3-2.3l0.7,0.7c0.3,0.3,1,0.7,1.3,1c1,0.7,2,1.3,3,2.3l1.3,1v0.3l0,0l0,0l0,0c-1,1.3-1.7,2.7-2.7,3.7l-1,1.7
				c-3.3,5-6.7,9.7-10,14.7c0,0,0,0.3-0.3,0.3V199z M248,181.3l17.7,16.3l0,0c3.3-5,6.7-9.7,10-14.7l1-1.7c0.7-1.3,1.7-2.3,2.3-3.7
				l-1-0.7c-1-0.7-2-1.3-3-2.3c-0.3-0.3-1-0.7-1.3-1l-0.3-0.3l-20.7,2.3l-0.7,0.7c-0.7,0.7-1,1.3-1.7,2c-0.7,0.7-1,1.3-1.7,2
				C248.7,180.7,248.3,181,248,181.3z"/>
			<g>
				<path class="st1" d="M278,177.3c-1-0.7-2-1.3-3-2.3c-0.3-0.3-1-0.7-1.3-1l-0.3-0.3L253,176l-0.3,0.7c-0.7,0.7-1,1.3-1.7,2
					c-0.7,0.7-1,1.3-1.7,2c-0.3,0.3-0.3,0.7-0.7,0.7l17,15.7c3.3-4.7,6.3-9.7,9.7-14.3l1-1.7c0.7-1,1.7-2.3,2.3-3.3L278,177.3z
					 M261,187.3C261,187.7,261,187.7,261,187.3c-0.7,0.3-1.3,0.3-1.7,0.3c-0.3,0-0.3,0-0.3-0.3c0-0.7-0.3-1.7-0.3-2.3
					c0-0.7-0.3-1.7-0.3-2.3c0-0.3,0-0.3,0.3-0.3s1,0,1.3,0c0.3,0,0.3,0,0.3,0.3C260.7,184.3,261,185.7,261,187.3z M269.3,183.7
					C269.3,183.7,269.3,184,269.3,183.7L269.3,183.7c0,1,0,1.3-0.3,1.7c0,0-0.3,0.3-0.3,0.7v0.3c0,0.3-0.3,0.7-0.7,0.7
					c-0.3,0-1,0.3-1.7,0.3c-1.3,0.3-2.7,0.3-4,0.3c-0.3,0-0.3,0-0.7,0c-0.3,0-0.3,0-0.3-0.3s0-0.3,0-0.7c0-1.3-0.3-2.7-0.3-4
					c0-0.3,0-0.3,0.3-0.3c0.3,0,0.3-0.3,0.3-0.7c0.3-1,1-2,1.7-2.7c0.7-0.7,0.7-1,0.7-2c0-0.7,0-1,0.7-1c0.3,0,0.3,0,0.7,0.3
					c0.3,0.7,0.3,1.3,0.3,2c0,0.3-0.3,1-0.3,1.3c0,0.3,0,0.7,0.3,0.7c0.7,0,1.3,0,2-0.3c0.3,0,0.3,0,0.7,0c0.7,0,1,0.7,0.7,1.3
					c0,0.3,0,0.7,0.3,1C269.3,183,269.3,183.3,269.3,183.7z"/>
			</g>
		</g>
		<polygon class="st33" points="349.3,88 343.7,91.3 343.3,91.7 340.3,93.7 331.3,99 331.7,101.3 332.3,105 332.3,107.3 335,105.7 
			356,93 		"/>
	</g>
</g>
</svg>
