<?xml version="1.0" encoding="utf-8"?>
<!-- Generator: Adobe Illustrator 24.1.0, SVG Export Plug-In . SVG Version: 6.00 Build 0)  -->
<svg version="1.1" id="Layer_1" xmlns="http://www.w3.org/2000/svg" xmlns:xlink="http://www.w3.org/1999/xlink" x="0px" y="0px"
	 viewBox="0 0 250 150" style="enable-background:new 0 0 250 150;" xml:space="preserve">
<style type="text/css">
	.st0{fill:#FFBE97;}
	.st1{fill:url(#SVGID_1_);}
	.st2{fill:#F79F72;}
	.st3{fill:url(#SVGID_2_);}
	.st4{fill:url(#SVGID_3_);}
	.st5{fill:url(#SVGID_4_);}
	.st6{fill:url(#SVGID_5_);}
	.st7{fill:url(#SVGID_6_);}
	.st8{fill:url(#SVGID_7_);}
	.st9{fill:#F9B08C;}
	.st10{fill:url(#SVGID_8_);}
	.st11{fill:url(#SVGID_9_);}
	.st12{fill:url(#SVGID_10_);}
	.st13{fill:url(#SVGID_11_);}
	.st14{fill:url(#SVGID_12_);}
	.st15{fill:url(#SVGID_13_);}
	.st16{fill:#595959;}
	.st17{fill:#353535;}
	.st18{fill:url(#SVGID_14_);}
	.st19{fill:#262626;}
	.st20{fill:url(#XMLID_3_);}
	.st21{clip-path:url(#SVGID_16_);}
	.st22{fill:#FFC5C7;}
	.st23{fill:url(#SVGID_17_);}
	.st24{fill:#FE8A8B;}
	.st25{fill:#0C0835;}
	.st26{fill:#252384;}
	.st27{fill:#FFFFFF;}
	.st28{fill:url(#SVGID_18_);}
	.st29{fill:url(#SVGID_19_);}
	.st30{fill:url(#SVGID_20_);}
	.st31{fill:url(#SVGID_21_);}
	.st32{fill:url(#SVGID_22_);}
	.st33{fill:url(#SVGID_23_);}
</style>
<g>
	<g>
		<path class="st0" d="M135.5,120.3c-2.3,2.7-10,7.9-12.1,14.5c-2,6.6,8.3,5.7,8.3,5.7l10.6-12.6L135.5,120.3z"/>
		
			<linearGradient id="SVGID_1_" gradientUnits="userSpaceOnUse" x1="131.3261" y1="37.85" x2="156.4368" y2="37.85" gradientTransform="matrix(1 0 0 -1 0 152)">
			<stop  offset="0" style="stop-color:#DF2827"/>
			<stop  offset="1" style="stop-color:#9E005D"/>
		</linearGradient>
		<path class="st1" d="M150.1,95.7c-3.2,2.3-5.1,4-6.6,7.1c-1.6,3.2-11.4,14.5-12.1,15.5c-0.6,1,5.5,11.7,10.5,14.3
			c0,0,7.5-8.6,11.8-11.9s2.8-14.8,0.8-18.7C152.5,98.2,150.1,95.7,150.1,95.7z"/>
		<path class="st0" d="M119.3,138c-0.8,0.3-1.4,0.6-1.4,1.7c0,1,0.2,2.7,0.6,3.3s2.4,1,2.4,1s-0.1-4.3-0.6-5.1
			C119.8,138.2,119.3,138,119.3,138z"/>
		<path class="st2" d="M118.4,143c-0.1-0.2-0.2-0.4-0.3-0.7c0.4,0.4,0.6,0.4,1.1,0.5l1.5,0.5c0,0.5,0,0.8,0,0.8
			S118.8,143.6,118.4,143z"/>
		<path class="st0" d="M121.2,136.4c-1,0.1-2,0.9-2,1.9s-0.4,3.9,0,4.4s2.1,1.8,2.7,1.9c0.6,0.1,1.6-0.1,1.5-0.4
			C123.3,143.9,121.2,136.4,121.2,136.4z"/>
		<path class="st2" d="M119.1,141.9c0.8,0.9,2.7,0.8,2.7,0.8s0.9,0.9,1,1.2c0.1,0.2,0.4,0.4,0.5,0.6c-0.3,0.1-0.9,0.2-1.2,0.1
			c-0.6-0.1-2.3-1.4-2.7-1.9L119.1,141.9L119.1,141.9z"/>
		<path class="st0" d="M125,134.7c-3.1,0.2-3.6,0.5-3.7,1.7c-0.1,1.3,0,4.9,0.4,5.8c0.4,0.9,0.6,1.8,1.1,2.3s1.2,0.5,1.2,0.5
			s1.7-2.5,1.8-4.5C125.8,138.4,125,134.7,125,134.7z"/>
		<path class="st2" d="M123.2,142.9c0.2-0.8,0.5-1.8,0.5-4.6c0-1.1,1,4.5,0.6,6c-0.2,0.4-0.4,0.6-0.4,0.6s-0.7,0-1.2-0.5
			s-0.7-1.3-1.1-2.3c0-0.1,0-0.1-0.1-0.2C121.7,142.5,122.3,142.9,123.2,142.9z"/>
		<path class="st0" d="M131.7,141c-0.2,1.7-2.4,2.3-2.7,3.2s-0.1,1.6-0.5,1.9c-0.4,0.2-2.2-0.8-2.1-1.9c0,0-0.5,1-1.5,1.1
			c-1,0.2-1.3-0.6-1.1-1.7c0.2-1.1,0.1-1.7,0.1-3.1c0-1.4-0.4-2.6,0.3-4.1c0.6-1.5,1.4-2.8,3.1-2.6c1.6,0.2,2.6,2.3,3.5,3
			C131.6,137.5,131.9,139.1,131.7,141z"/>
		<path class="st2" d="M126.4,144.1c0.1-2.2,0.2-3.9,0.2-4.3c0-0.4-0.1-2.7,0.7-2.8c0.1,0,1.9,1.1,2,1.9c0,0.8,0,2.2-0.6,2.5
			C128.1,141.8,126.4,144.1,126.4,144.1z"/>
		<g>
			
				<linearGradient id="SVGID_2_" gradientUnits="userSpaceOnUse" x1="148.2749" y1="34.1642" x2="200.7904" y2="34.1642" gradientTransform="matrix(1 0 0 -1 0 152)">
				<stop  offset="0" style="stop-color:#DF2827"/>
				<stop  offset="1" style="stop-color:#9E005D"/>
			</linearGradient>
			<path class="st3" d="M200.8,100.3c-3.3-4.1-4.4-4.6-7.7-6.5c-3.4-2-16.1-6.9-18.7-7.6c-2.6-0.6-13.2,4.3-16.7,5.9
				s-7.9,3.1-8.6,4.7c-2.5,5.1,2.5,12.4,2.5,27.7c0,8,1.8,25,1.8,25s40,0.2,40.6-0.6c0.6-0.8,2-28.8,2.7-34.6
				C197.3,108.4,200.8,100.3,200.8,100.3z"/>
			
				<linearGradient id="SVGID_3_" gradientUnits="userSpaceOnUse" x1="179.384" y1="62.0248" x2="170.1727" y2="57.2576" gradientTransform="matrix(1 0 0 -1 0 152)">
				<stop  offset="0" style="stop-color:#FF8900"/>
				<stop  offset="1" style="stop-color:#FFAE01"/>
			</linearGradient>
			<path class="st4" d="M165.1,99.6c2.8-0.3,7.4-2.8,9.1-1.9c1.8,0.8,2.2,3,2.6,3.4s1.9-1.5,1.9-6s0.1-9.1-3.2-9.8
				c-3.3-0.6-11.9,2.6-13.7,3.9c-1.7,1.3-2.5,2.6-2.9,3.9c-0.5,1.3-1.7,6.4-1.2,6.5c0.6,0.1,2.2-3.3,3.4-3.4
				C162.4,96.1,164.3,99.7,165.1,99.6z"/>
			
				<linearGradient id="SVGID_4_" gradientUnits="userSpaceOnUse" x1="162" y1="59.8545" x2="165.5472" y2="59.8545" gradientTransform="matrix(1 0 0 -1 0 152)">
				<stop  offset="0" style="stop-color:#FF8900"/>
				<stop  offset="1" style="stop-color:#FFAE01"/>
			</linearGradient>
			<path class="st5" d="M163.5,95.6c-0.7-1.7-1.5-3.2-1.5-4.4c0-1.2,0.3-2,1.6-2.4s1.9,0.3,1.9,2.1
				C165.6,92.7,163.5,95.6,163.5,95.6z"/>
			
				<linearGradient id="SVGID_5_" gradientUnits="userSpaceOnUse" x1="173.7725" y1="63.05" x2="176.6434" y2="63.05" gradientTransform="matrix(1 0 0 -1 0 152)">
				<stop  offset="0" style="stop-color:#FF8900"/>
				<stop  offset="1" style="stop-color:#FFAE01"/>
			</linearGradient>
			<path class="st6" d="M173.8,92.4c2.7-2.5,3.1-5.3,2.8-5.9s-1.4-1-1.4-1s-0.4,1.8-0.2,2.3C175.3,88.2,173.8,92.4,173.8,92.4z"/>
			<g>
				
					<linearGradient id="SVGID_6_" gradientUnits="userSpaceOnUse" x1="169.2263" y1="54.6" x2="179.2626" y2="54.6" gradientTransform="matrix(1 0 0 -1 0 152)">
					<stop  offset="0" style="stop-color:#FF8900"/>
					<stop  offset="1" style="stop-color:#FFAE01"/>
				</linearGradient>
				<path class="st7" d="M169.4,98.4c1.3-0.7,2.7-1.3,4.3-1.2c0.4,0,0.9,0.1,1.3,0.4c0.3,0.3,0.5,0.5,0.8,0.8c0.5,0.6,0.9,1.3,1.2,2
					c0,0.1,0.2,0.3,0.1,0.2c-0.1-0.1-0.3,0-0.2,0c0,0,0.1,0,0.1-0.1c0.2-0.2,0.3-0.5,0.5-0.9c0.3-0.6,0.5-1.3,0.7-1.9
					c0.3-1.4,0.5-2.8,0.6-4.3c0.3,1.5,0.3,2.9,0.2,4.4c-0.1,0.7-0.3,1.5-0.6,2.2c-0.2,0.3-0.3,0.7-0.6,1c-0.1,0.1-0.2,0.2-0.3,0.3
					c-0.1,0-0.2,0.1-0.3,0.1s-0.3,0-0.4,0c-0.2-0.1-0.3-0.3-0.4-0.4c-0.1-0.1-0.1-0.2-0.2-0.3c-0.3-0.7-0.6-1.3-1-1.8
					c-0.2-0.3-0.5-0.6-0.7-0.8c-0.2-0.1-0.5-0.3-0.8-0.3c-0.6-0.1-1.4,0-2.1,0.1C170.8,98.1,170.1,98.3,169.4,98.4z"/>
			</g>
			<g>
				
					<linearGradient id="SVGID_7_" gradientUnits="userSpaceOnUse" x1="157.1028" y1="54.05" x2="163.3137" y2="54.05" gradientTransform="matrix(1 0 0 -1 0 152)">
					<stop  offset="0" style="stop-color:#FF8900"/>
					<stop  offset="1" style="stop-color:#FFAE01"/>
				</linearGradient>
				<path class="st8" d="M162.9,97.5c-0.4-0.2-0.7-0.5-1-0.6c-0.3-0.2-0.8-0.3-0.7-0.2c-0.6,0.4-1.1,1-1.5,1.6
					c-0.2,0.3-0.4,0.7-0.7,1c-0.1,0.2-0.3,0.3-0.5,0.5l-0.2,0.1c-0.1,0-0.2,0.1-0.3,0.1c-0.3,0-0.6-0.3-0.6-0.4
					c-0.1-0.6,0-1,0.1-1.4s0.3-0.8,0.5-1.1c0,0.4,0,0.8,0,1.2c0,0.4,0,0.9,0.1,1c0,0-0.1-0.1-0.2-0.1l0,0c0,0,0,0,0.1-0.1
					s0.2-0.2,0.3-0.4c0.2-0.3,0.4-0.6,0.6-1c0.5-0.7,1.2-1.4,1.9-1.7c0,0,0.2-0.1,0.3-0.1s0.2,0,0.3,0c0.2,0,0.3,0.1,0.4,0.2
					c0.2,0.1,0.4,0.3,0.5,0.4C162.5,96.8,162.7,97.1,162.9,97.5z"/>
			</g>
			<path class="st9" d="M163.1,85.3c0,1.1,0.1,2.2,0.2,3.3c0.3,2.7,0,6.3,0.2,6.9c0.2,0.7,1.7,3.4,1.7,3.4s2.5-1.2,3.6-2.4
				c1.1-1.3,2.4-1.3,4.3-3.2c1.8-1.9,3.1-4.8,2.7-7.3c-0.1-0.3-0.4-3.5-0.4-6.7c-0.1-3.3-3.5-5.7-6.7-5.7c-3.3,0-5.2,4.8-5.3,8.1
				C163.1,83,163.1,84.3,163.1,85.3z"/>
		</g>
		<g>
			
				<linearGradient id="SVGID_8_" gradientUnits="userSpaceOnUse" x1="150.6" y1="79.6" x2="162.3626" y2="79.6" gradientTransform="matrix(1 0 0 -1 0 152)">
				<stop  offset="0" style="stop-color:#3054D4"/>
				<stop  offset="1" style="stop-color:#062684"/>
			</linearGradient>
			<path class="st10" d="M157.4,65.8c-4.9,0-6.8,3.8-6.8,6.6c0,2.5,0.8,6.6,6.8,6.6c3,0,5-3,5-6.6S160.4,65.8,157.4,65.8z"/>
			
				<linearGradient id="SVGID_9_" gradientUnits="userSpaceOnUse" x1="152.0519" y1="79.6" x2="160.9341" y2="79.6" gradientTransform="matrix(1 0 0 -1 0 152)">
				<stop  offset="0" style="stop-color:#062684"/>
				<stop  offset="1" style="stop-color:#3054D4"/>
			</linearGradient>
			<path class="st11" d="M157.2,67.4c-3.7,0-5.1,2.9-5.1,5c0,1.9,0.6,5,5.1,5c2.2,0,3.8-2.2,3.8-5C160.9,69.6,159.4,67.4,157.2,67.4
				z"/>
			<path class="st0" d="M151.2,68c0.3,1.7,1.1,2.4,1.5,4.7c0.4,2.3-0.6,5.7,0.9,8.7c1.5,2.9,4,6.8,5.4,7s12.8-1.8,16.6-9.4
				c1.1-2.2,3.5-10.8,1.4-16c-2-5.2-5.3-10-12.8-10.2C156.6,52.7,149.6,58.9,151.2,68z"/>
			<path d="M170.9,68c-0.3-1.8-1.5-2.8-1.5-2.8s-2.9-1.2-5.1-1.4c-2.2-0.2-4.5-0.9-4.5-0.9s0.7,1.8,1.9,2.6c0,0-5.3-0.3-7-1.9
				c0,0,0.3,1.3,0.7,2.2c0,0-2.6-0.3-3.4-1.3c0,0-0.7,2.3-0.7,3.5c0,0-3.1-4.3-2.3-7.7s1.9-4.7,1.9-4.7s-2.3,0.2-3.5,0
				c0,0,2.9-2.5,5.1-4.2c2.2-1.7,8.7-1.7,8.7-1.7s-0.5-1.7,0.1-4.5c0,0,2.8,4.1,5.8,5.4c3,1.3,2.6,1.1,5.7,1.9
				c3.1,0.8,6.1,2.8,7.4,4.5s2.6,3.4,3.4,3.7c0,0-2-0.3-2.9-1.1c0,0,1.6,3.7-0.5,8.5s-7.6,3.4-8.6,2.3C170.2,69.3,170.9,68,170.9,68
				z"/>
			
				<linearGradient id="SVGID_10_" gradientUnits="userSpaceOnUse" x1="166.8739" y1="93.2108" x2="177.0644" y2="93.2108" gradientTransform="matrix(1 0 0 -1 0 152)">
				<stop  offset="0" style="stop-color:#3054D4"/>
				<stop  offset="1" style="stop-color:#062684"/>
			</linearGradient>
			<path class="st12" d="M172.8,66.2c0,0,0.4-12-5.9-15.8c0,0,4.9-0.5,7.6,4.3c2.8,4.9,2.6,9,2.5,11.4
				C177,68.5,172.8,66.2,172.8,66.2z"/>
			
				<linearGradient id="SVGID_11_" gradientUnits="userSpaceOnUse" x1="169.7" y1="79.6" x2="181.4626" y2="79.6" gradientTransform="matrix(1 0 0 -1 0 152)">
				<stop  offset="0" style="stop-color:#3054D4"/>
				<stop  offset="1" style="stop-color:#062684"/>
			</linearGradient>
			<path class="st13" d="M174.7,65.8c4.9,0,6.8,3.8,6.8,6.6c0,2.5-0.8,6.6-6.8,6.6c-3,0-5-3-5-6.6S171.7,65.8,174.7,65.8z"/>
			
				<linearGradient id="SVGID_12_" gradientUnits="userSpaceOnUse" x1="172.0285" y1="79.6" x2="181.4544" y2="79.6" gradientTransform="matrix(1 0 0 -1 0 152)">
				<stop  offset="0" style="stop-color:#062684"/>
				<stop  offset="1" style="stop-color:#3054D4"/>
			</linearGradient>
			<path class="st14" d="M172,72.4c0-3.2,2.1-5.9,4.8-5.9c2.6,0,4.6,2.6,4.6,5.9c0,3.2-2,5.9-4.6,5.9S172,75.7,172,72.4z"/>
			
				<linearGradient id="SVGID_13_" gradientUnits="userSpaceOnUse" x1="174.1891" y1="79.6" x2="180.7026" y2="79.6" gradientTransform="matrix(1 0 0 -1 0 152)">
				<stop  offset="0" style="stop-color:#3054D4"/>
				<stop  offset="1" style="stop-color:#062684"/>
			</linearGradient>
			<ellipse class="st15" cx="177.4" cy="72.4" rx="3.3" ry="4"/>
		</g>
		<g>
			<path class="st16" d="M159.8,146.6c0,0.2-0.2,0.4-0.8,0.4s-16.1,0-18.2,0c-2.1,0-2.6-0.8-2-1.9c0.6-1.1,3.3-3.4,9.9-5
				c6.6-1.6,10,2.2,11.1,3.9C160.6,145.3,159.8,146.6,159.8,146.6z"/>
			<path class="st17" d="M138.6,145.5c0.4,1.2,14.3,0.6,14.3,0.6s-1.4-1.9-3-2s-2.3,0.5-4.4,0.8c-2.1,0.4-0.5-0.9-0.5-0.9
				s-1.5-0.3-2.1-0.8c0,0,3.4-1,4.9-1.3c1.4-0.2,5.1-0.1,5.6,0c0.3,0.1,2-0.9,4.1-0.4c1.1,0.8,1.9,1.8,2.3,2.4c0.8,1.2,0,2.6,0,2.6
				c0,0.2-0.2,0.4-0.8,0.4s-16.1,0-18.2,0C138.9,147,138.3,146.4,138.6,145.5z"/>
			<path class="st0" d="M198.1,135.2c0,0-13,2-20,3.3c-6.7,1.2-12.4,1.7-14,1.4s-7.2-2.4-9-3.1c-1.8-0.7-5.4-1.2-7.2-0.6
				c-1.8,0.6-3.3,1.2-4.1,1.2c-0.7,0-0.6,1.2,0.4,1.4s1.9,0.2,1.9,0.2s-3.3,1.8-3.9,2c-0.6,0.2,0.1,1.3,0.9,1.2c0,0-0.7,0.4-0.5,0.8
				c0.2,0.4,2,0.4,2,0.4s-2.1,1.1-0.4,1.5c1.8,0.4,3.9-1.6,4.8-1.8c0.9-0.2,2.9-0.1,3.9,0.7c1,0.7,5.2,4.1,10.9,2.1
				c0,0,39,1.6,42.9,1.6s6.2-3.4,5-10.1c-1.2-6.6-3.7-11.6-3.7-11.6l-13.4,0.9L198.1,135.2z"/>
			<g>
				<path class="st2" d="M149.1,138c0.3-0.1,0.6-0.1,0.8-0.1C149.9,137.9,149.6,137.9,149.1,138z"/>
				<path class="st2" d="M146.1,139.1c0,0-0.9,0-1.9-0.2c-0.3-0.1-0.5-0.2-0.6-0.4c1.1,0.5,2.4,0.2,3.2,0c0.5-0.1,1.6-0.3,2.4-0.5
					C148.4,138.2,147.2,138.6,146.1,139.1z"/>
			</g>
			<g>
				<path class="st2" d="M146.2,140.6c0.1,0,0.2-0.1,0.2-0.1C146.4,140.6,146.4,140.6,146.2,140.6z"/>
				<path class="st2" d="M142.2,141.8c0,0,0.4,0.4,1.2,0c0.7-0.3,2.3-1,2.9-1.2c-0.7,0.3-2.7,1.4-3.2,1.6
					C142.7,142.3,142.4,142.1,142.2,141.8z"/>
			</g>
			<path class="st2" d="M144.2,143.1c0.6-0.2,1.8-0.9,2.6-1.3c0.8-0.4,1.7-0.4,1.7-0.4s-0.3,0-1.1,0.4s-2.8,1.7-2.8,1.7
				s-1.1,0-1.7-0.2C142.9,143.3,143.6,143.3,144.2,143.1z"/>
			
				<linearGradient id="SVGID_14_" gradientUnits="userSpaceOnUse" x1="185.5217" y1="35.4689" x2="211.6984" y2="35.4689" gradientTransform="matrix(1 0 0 -1 0 152)">
				<stop  offset="0" style="stop-color:#DF2827"/>
				<stop  offset="1" style="stop-color:#9E005D"/>
			</linearGradient>
			<path class="st18" d="M211.6,126.4c0.2,0.5,0.1,1-0.3,1.4c-2.4,2.3-5.4,5.4-8.6,5.9c-3.5,0.5-9.2,0.7-9.6,0
				c-0.3-0.7-1.5-10.1-3.6-14.8c-2.1-4.7-3.5-7.1-4-9.9c-0.5-2.7,4.2-9.1,6.3-9.7c2.1-0.5,6.9-0.8,8.9,0.9c2,1.8,3.5,8.6,5.8,13.8
				C208.4,118.3,210.8,124.3,211.6,126.4z"/>
		</g>
	</g>
	<g>
		<g>
			<path class="st17" d="M127.5,143.9H88.7c-0.4,0-0.7,0.3-0.7,0.7v1.7c0,0.4,0.3,0.7,0.7,0.7h38.8V143.9z"/>
			<path class="st17" d="M137.5,146.1v0.7c0,0.2-0.1,0.3-0.3,0.3h-9.8c-0.3,0-0.6-0.2-0.6-0.6v-2c0-0.3,0.3-0.6,0.6-0.5l9.7,1.9
				C137.4,145.8,137.5,145.9,137.5,146.1z"/>
		</g>
		<g>
			<g>
				<path class="st17" d="M59.7,78h72.5c1.5,0,2.8,0.9,3.3,2.3l15.9,44c0.7,2.3-1,4-3.7,4.3c-0.4,0-2.4-0.8-5.4-2.3H77.4
					c-1.5,0-2.8-0.9-3.3-2.3L59.8,84.2c-2.4-1.3-3.8-2-3.8-2S55.1,78,59.7,78z"/>
				<path class="st16" d="M129.9,80.3H57.4c-1,0-1.7,1-1.4,2l15.9,44c0.5,1.4,1.8,2.3,3.3,2.3h72.5c1,0,1.7-1,1.4-2l-15.9-44
					C132.7,81.2,131.4,80.3,129.9,80.3z"/>
				<polygon class="st17" points="113.6,128.6 110.3,116.6 98.1,128.6 				"/>
				<g>
					<g>
						<g>
							<polygon class="st17" points="130,121.2 129,118.7 130.2,118.7 131.1,121.2 							"/>
						</g>
						<g>
							<polygon class="st17" points="127.5,121.2 126.6,118.7 127.7,118.7 128.7,121.2 							"/>
						</g>
						<g>
							<polygon class="st17" points="125,121.2 124.1,118.7 125.3,118.7 126.2,121.2 							"/>
						</g>
						<g>
							<polygon class="st17" points="122.6,121.2 121.6,118.7 122.8,118.7 123.7,121.2 							"/>
						</g>
					</g>
				</g>
				<g>
					<g>
						<g>
							<polygon class="st17" points="87.5,121.2 86.6,118.7 87.8,118.7 88.7,121.2 							"/>
						</g>
						<g>
							<polygon class="st17" points="85.1,121.2 84.1,118.7 85.3,118.7 86.2,121.2 							"/>
						</g>
						<g>
							<polygon class="st17" points="82.6,121.2 81.7,118.7 82.8,118.7 83.8,121.2 							"/>
						</g>
						<g>
							<polygon class="st17" points="80.1,121.2 79.2,118.7 80.4,118.7 81.3,121.2 							"/>
						</g>
					</g>
				</g>
			</g>
			<g>
				<path class="st17" d="M89.1,142.8c0.7-2.1,9.4-30,9.4-30h11.1l0.7,3.9c0,0-7.5,24.1-8.2,26.1c-0.1,0.2-0.1,0.3-0.2,0.5l0,0
					c-0.7,2,1.1,2,3,2s19.6,0,19.6,0v1.8H105H91.9C88,147,88.4,144.8,89.1,142.8z"/>
				<path class="st16" d="M109.6,112.7c0,0-8.7,28-9.4,30c-0.7,2.1-1.1,4.3,2.9,4.3H90c-3.9,0-3.6-2.2-2.9-4.3s9.4-30,9.4-30H109.6z
					"/>
			</g>
		</g>
	</g>
	<g>
		<g>
			<g>
				<path class="st19" d="M53.9,150h169.5c1.7,0,3-0.7,3-1.5l0,0c0-0.8-1.4-1.5-3-1.5H53.9c-1.7,0-3,0.7-3,1.5l0,0
					C50.9,149.3,52.3,150,53.9,150z"/>
			</g>
		</g>
	</g>
	<g>
		
			<linearGradient id="XMLID_3_" gradientUnits="userSpaceOnUse" x1="13.8" y1="110.9" x2="71.6" y2="110.9" gradientTransform="matrix(1 0 0 -1 0 152)">
			<stop  offset="0" style="stop-color:#3054D4"/>
			<stop  offset="1" style="stop-color:#062684"/>
		</linearGradient>
		<circle id="XMLID_2_" class="st20" cx="42.7" cy="41.1" r="28.9"/>
		<g>
			<g>
				<defs>
					<path id="SVGID_15_" d="M71.6,41.1c0,16-12.9,28.9-28.9,28.9S13.8,57.1,13.8,41.1S26.7,6.6,42.7,6.6
						C58.7,6.6,71.6,25.1,71.6,41.1z"/>
				</defs>
				<clipPath id="SVGID_16_">
					<use xlink:href="#SVGID_15_"  style="overflow:visible;"/>
				</clipPath>
				<g class="st21">
					<g>
						<path class="st22" d="M83.3,64.2c0.5,2.8-2,5.2-2.8,5.7s-6.2,2.6-9.4,2.7c-3.2,0.1-7.5-6.7-5.7-7.5c1.7-0.8,13.6-1.6,14.9-1.6
							C81.6,63.4,83.3,64.2,83.3,64.2z"/>
						
							<linearGradient id="SVGID_17_" gradientUnits="userSpaceOnUse" x1="54.2697" y1="86.952" x2="74.8792" y2="86.952" gradientTransform="matrix(1 0 0 -1 0 152)">
							<stop  offset="0" style="stop-color:#FF8900"/>
							<stop  offset="1" style="stop-color:#FFAE01"/>
						</linearGradient>
						<path class="st23" d="M74.9,62.7c-1.4,8.3-4.7,14.7-5.8,14.8c-1,0.1-11.1-3.3-13.8-4.6c-2.8-1.3,0.8-20.7,2.6-20.3
							c1.7,0.3,5.5,4.1,8.6,5.9C69.5,60.2,74.9,62.7,74.9,62.7z"/>
						<path class="st0" d="M83.3,63.8c0.1,3.3-2.9,3.8-6.4,2.9c-3.5-0.8-9.3-8.8-11.9-12.4c-2.6-3.6-7.4-10-8.4-10.6
							s-3.3-0.9-5.2-4.1c-1.9-3.2,0.6-10,1.5-10.8s8.8,1.9,9.7,3.2c0.9,1.4-0.6,8.7-0.4,9.6c0.3,0.9,7,8.4,9.9,10.3
							C75.2,53.7,83.3,61.4,83.3,63.8z"/>
						<path class="st24" d="M57,34.2c-0.9-0.5-1.2-2.5-0.6-2.2c0.6,0.4,1.6,0.4,3,0.3c1.4,0,1.9-0.1,1.9-0.1s0.1,0.9,0.1,1.6
							C61.5,33.8,58,34.6,57,34.2z"/>
						<path class="st25" d="M62.2,35.2c-0.1,0.5-5.5,5.2-6,5.7c0,0-0.5,0.1-0.6,0c-1.4-1.3-7.7-12.6-7.8-13s4.1-4.3,5.3-5.3
							c0.2-0.1,0.9-0.1,1,0.1C55.4,24.6,62.3,34.5,62.2,35.2z"/>
						<path class="st26" d="M61.6,35.2c-0.1,0.5-5.5,5.2-6,5.7c-0.6,0.5-8.3-12.6-8.4-13c-0.1-0.4,4.5-4.2,5.8-5.3
							c0.2-0.1,0.4-0.1,0.5,0.1C54.8,24.6,61.7,34.5,61.6,35.2z"/>
						<path class="st27" d="M60.7,34.4c-0.1,0.5-5.1,4.9-5.6,5.4S47.4,28,47.3,27.6c-0.1-0.4,4.2-4,5.4-4.9c0.2-0.1,0.4-0.1,0.5,0
							C54.3,24.5,60.8,33.8,60.7,34.4z"/>
						<path class="st0" d="M57.5,28c-0.8-0.5-1.9-2.2-2-2.8c-0.1-0.6,0-1.1,0.4-1.2s1.8,1.7,2.5,2.2s1.5,1.6,1.2,2.4
							c-0.3,0.7-1.9,0.5-2,0.3C57.4,28.9,57.5,28,57.5,28z"/>
						<path class="st2" d="M55.7,24.2c-0.3,0.7,1.5,3.3,3,4l-0.6,0.6c0,0-0.3-0.1-0.6-0.1c0-0.3,0-0.7,0-0.7c-0.8-0.5-1.9-2.2-2-2.8
							C55.4,24.8,55.5,24.4,55.7,24.2z"/>
						<path class="st0" d="M59.4,30.7c-1.4-0.8-2.6-0.7-3.3-1c-0.8-0.3-0.9-1.5-0.4-1.7s3.8,0.3,4.6,0.7c0.8,0.4,1.2,2.1,1.2,2.1
							L59.4,30.7z"/>
						<path class="st2" d="M58.8,29.8c0.8,0.2,1.1,0,1.1,0c0,0.3,0.3,0.5,0.6,0.9h-1.1c-1.4-0.8-2.6-0.7-3.3-1
							c-0.4-0.1-0.6-0.5-0.7-0.8C55.7,29.5,58,29.6,58.8,29.8z"/>
						<path class="st0" d="M62.7,32c-0.8,1.1-4.5,0.6-5.3,0.5s-1.2-0.6-1.2-1.1c0.2-1,5.1-0.8,5.5-0.6C62.2,30.9,62.7,32,62.7,32z"
							/>
						<path class="st24" d="M56.3,31.6c0.5,0.5,1.7,0.8,3.1,0.9c1.2,0.1,1.8,0,2,0c-1.4,0.2-3.4,0-4-0.1
							C56.8,32.4,56.4,32,56.3,31.6z"/>
						<g>
							
								<linearGradient id="SVGID_18_" gradientUnits="userSpaceOnUse" x1="20.2832" y1="69.3192" x2="63.659" y2="69.3192" gradientTransform="matrix(1 0 0 -1 0 152)">
								<stop  offset="0" style="stop-color:#FF8900"/>
								<stop  offset="1" style="stop-color:#FFAE01"/>
							</linearGradient>
							<path class="st28" d="M45.1,46.9c8,4.1,9.3,3.9,12.7,5.7s2.4,21.2,2.2,24.2s-1,14.9-0.6,18.1c0.5,3.2,2.2,15.2,3,17
								s2.3,4.9,0,6.8c-2.3,1.8-7.2,3.1-17.9,2.4c-10.6-0.7-22.1-7.2-22.6-8.2c-0.5-0.9,5.1-17.8,5.3-21s0.9-5.6,1.2-7.1
								c0.3-1.5-3-8.5-3.6-13c-0.5-4.5-5.4-16.8-4.5-19.1s9.4-4.8,15.2-7.7C41.3,42.1,45.1,46.9,45.1,46.9z"/>
							<path class="st9" d="M51.4,49.8c-1.5-0.7-3.5-1.6-6.3-3c0,0-3.8-4.7-9.6-1.8c-2,1-4.3,2-6.6,2.9c3.4,5.9,9,10.4,15.4,12.6
								C47.8,57.8,50.3,54,51.4,49.8z"/>
							<path class="st9" d="M36.5,36.9c-0.1,4.8-0.4,8.1-1.5,9c0,0,1.8,8,9.1,7.3c2.5-0.2,2.2-4.4,1-6.3l0.7-5.9L36.5,36.9z"/>
						</g>
						<path class="st22" d="M10.6,75.6c-1.6,2.2-3.8,7.7-3,10.3c0.8,2.5,9.2,13.8,13,18s4.7,4.9,5.4,6.3s3.9,7.1,4.8,7.9
							c0.9,0.9,2.4,1,2.4,1s1.2,1.3,3.4,1c0,0,1.9,1.3,3.4,1.7c0,0,0.5,1,1,1.1s1.2-0.9,0.2-3c-0.9-2.1-2.5-2.9-2.7-4.3
							c-0.2-1.3-1.4-4-1.4-4s2.7,2.8,4.3,2.9c1.7,0.2,1.9-0.8,1-1.6c-0.9-0.8-2.1-2-3.2-3.6c-1.1-1.6-2.5-2.6-4.6-2.9
							s-3.6-0.5-4.1-0.9s-3.3-4.3-5.2-8.5s-3.6-9.6-8.3-14.3l2.1-3.7L10.6,75.6z"/>
						<path class="st24" d="M40,121.5c-0.4-1.2-1.2-2.2-2-3l-0.3-0.3c-0.1-0.1-0.3-0.2-0.3-0.3c-0.2-0.2-0.3-0.5-0.5-0.7
							c-0.3-0.5-0.6-1-0.9-1.5c0.2,0.6,0.4,1.2,0.6,1.7c0.1,0.3,0.2,0.6,0.4,0.8c0.1,0.2,0.2,0.2,0.3,0.3l0.3,0.3
							c0.4,0.4,0.8,0.9,1.2,1.3C39.2,120.5,39.6,121,40,121.5z"/>
						<path class="st24" d="M36.5,119.7c-0.3-0.6-0.7-1.2-1-1.7c-0.4-0.6-0.7-1.1-1-1.7c0,0.7,0.2,1.4,0.6,2
							C35.4,118.8,35.9,119.3,36.5,119.7z"/>
						<path class="st24" d="M34.8,119.9c-1-0.3-1.6-0.9-1.6-0.9s-1.5-0.1-2.4-1c-0.3-0.4-1.1-1.5-1.9-2.9c0,0,1,1.1,1.7,1.9
							c1,1.2,2.4,0.8,2.4,0.8l-0.2-1.1C32.8,116.9,33.7,119.4,34.8,119.9z"/>
						<path class="st24" d="M7.6,83.1c0,1,0.1,1.9,1.6,4.6c1.7,3.1,12.3,16.1,14.6,18.6c2.3,2.4,2.2,2.6,3.6,6.4
							c-0.6-1.1-1.1-2-1.3-2.5c-0.7-1.4-1.5-2.1-5.4-6.3c-3.8-4.2-12.2-15.5-13-18C7.4,85.2,7.4,84.2,7.6,83.1z"/>
						<path class="st24" d="M15.9,80.1L15,81.5c0,0,1.2,0.3,2,1.2l1.7-2.8L15.9,80.1z"/>
						
							<linearGradient id="SVGID_19_" gradientUnits="userSpaceOnUse" x1="5.7565" y1="84.8288" x2="28.1462" y2="84.8288" gradientTransform="matrix(1 0 0 -1 0 152)">
							<stop  offset="0" style="stop-color:#FF8900"/>
							<stop  offset="1" style="stop-color:#FFAE01"/>
						</linearGradient>
						<path class="st29" d="M25.9,72.3C28.1,68,29,61,27,57.3s-5.7-5-6.6-4.6s-3.4,6.2-5.7,8.9c-2.4,2.6-8.7,10-8.9,10.7
							c-0.2,0.6,4.6,5.7,13.6,9.4C20.5,82.1,25.9,72.3,25.9,72.3z"/>
						<g>
							<path d="M46.4,37.3c-0.5-2-0.5-4-0.6-6c-0.1-1.5-0.2-2.9-1.5-3.8c-1-0.7-2.3-0.8-3.4-0.6c-3.2,0.4-3.9,3.5-3.6,6.4
								c0.2,2.2,1.1,4.4,1.9,6.4c-1.2-0.1-2.8-0.7-3.5-1.6c0.3,1.3,0.9,2.4,1.8,3.4c-3.4-0.1-6.5-2.3-8.3-5.2
								c-1.8-3-2.4-6.6-2.2-10.1c0.2-4.1,1.5-8.3,4.1-11.5c5.2-6.4,15.1-7.2,21.1-1.7c2.1,1.9,3.6,4.4,4.3,7.2c1,3.6,1,7.5,0.2,11.2
								c-0.3,1.5-0.5,2.8-0.6,4.4c0,0.5-0.6,5.9-0.3,5.9c-2.1,0.1-4.6-0.3-6-1.9c0.6,1.1,1.2,2.2,1.9,3.3
								C49.1,42.5,47.1,40,46.4,37.3z"/>
							<path class="st0" d="M35.3,29.8c-1-0.6-2.1-0.9-3,0c-1.3,1.3,0.5,7.5,3.4,6c0,0,4.1,5.7,7.1,7.3s5.1,0.8,6.2-0.3
								c1.1-1.1,4.9-5.9,5.6-10.9c0.2-1.8,0-5.3,0-6c0.2-2.3,1-4.2-0.8-6c-1.8-1.8-4.4-2.9-6.9-3c-3.3-0.1-6.5,1.3-8.7,3.8
								C35.9,23.4,35.5,26.4,35.3,29.8z"/>
							<path class="st24" d="M32.8,31.5c0.2-1.1,1.2-1.3,1.9-0.6c0.7,0.8,0.9,3.4,0.7,3.7c-0.2,0.4-1.4,0.3-1.7-0.4
								c-0.2-0.8,0.5-1.3,1.2-1c0,0,0.2-1.1-0.4-1.9c-0.6-0.7-1.2-0.5-1.3-0.3C33.1,31.3,32.8,31.5,32.8,31.5z"/>
							<path d="M36.9,24.5c2.6-0.1,5.2-0.7,7.6-1.7c0.5-1.1,0.5-2,0.5-3.2c0.7,1.2,1,2.6,1.1,3.9c1.5-0.1,3.1-0.2,4.6-0.3
								c0.4-1.2,0.5-2.4,0.4-3.7c0.5,1.2,0.8,2.7,0.9,4c0.9-0.3,2.1,0.1,3,0.3c1.2-2.6,1.1-7.4-1.4-9.5c-2.5-2-6.7-2.5-9.7-2.1
								c-6.4,0.9-11.4,6.2-11,12.8c0.2,3.8,2.1,7.3,4.8,9.9C36.3,31.9,36,28,36.9,24.5z"/>
						</g>
					</g>
				</g>
			</g>
		</g>
	</g>
	<g>
		<g>
			<g>
				
					<linearGradient id="SVGID_20_" gradientUnits="userSpaceOnUse" x1="83.4615" y1="111.8" x2="117.0615" y2="111.8" gradientTransform="matrix(1 0 0 -1 0 152)">
					<stop  offset="0" style="stop-color:#3054D4"/>
					<stop  offset="1" style="stop-color:#062684"/>
				</linearGradient>
				<circle class="st30" cx="100.3" cy="40.2" r="16.8"/>
			</g>
		</g>
	</g>
	<g>
		<g>
			<g>
				
					<linearGradient id="SVGID_21_" gradientUnits="userSpaceOnUse" x1="202.6" y1="87.6" x2="236.2" y2="87.6" gradientTransform="matrix(1 0 0 -1 0 152)">
					<stop  offset="0" style="stop-color:#3054D4"/>
					<stop  offset="1" style="stop-color:#062684"/>
				</linearGradient>
				<circle class="st31" cx="219.4" cy="64.4" r="16.8"/>
			</g>
		</g>
	</g>
	<g>
		
			<linearGradient id="SVGID_22_" gradientUnits="userSpaceOnUse" x1="126.8" y1="135.2" x2="160.4" y2="135.2" gradientTransform="matrix(1 0 0 -1 0 152)">
			<stop  offset="0" style="stop-color:#3054D4"/>
			<stop  offset="1" style="stop-color:#062684"/>
		</linearGradient>
		<circle class="st32" cx="143.6" cy="16.8" r="16.8"/>
	</g>
	<g>
		<g>
			<g>
				
					<linearGradient id="SVGID_23_" gradientUnits="userSpaceOnUse" x1="174.9" y1="126.6" x2="208.5" y2="126.6" gradientTransform="matrix(1 0 0 -1 0 152)">
					<stop  offset="0" style="stop-color:#3054D4"/>
					<stop  offset="1" style="stop-color:#062684"/>
				</linearGradient>
				<circle class="st33" cx="191.7" cy="25.4" r="16.8"/>
			</g>
		</g>
	</g>
	<g>
		<path class="st27" d="M134.9,19.2c-0.5-0.2-0.8-0.6-1.1-1s-0.4-0.9-0.4-1.5s0.1-1,0.4-1.5c0.3-0.4,0.6-0.8,1.1-1s1-0.4,1.5-0.4
			s0.9,0.1,1.3,0.3c0.4,0.2,0.7,0.4,1,0.7l-0.8,0.8c-0.4-0.4-0.8-0.6-1.4-0.6c-0.3,0-0.6,0.1-0.9,0.2c-0.3,0.2-0.5,0.4-0.6,0.6
			s-0.2,0.6-0.2,0.9s0.1,0.6,0.2,0.9s0.4,0.5,0.6,0.6c0.3,0.1,0.6,0.2,0.9,0.2c0.6,0,1-0.2,1.4-0.7l0.8,0.8c-0.3,0.3-0.6,0.6-1,0.7
			c-0.4,0.2-0.8,0.3-1.3,0.3C135.9,19.6,135.4,19.4,134.9,19.2z"/>
		<path class="st27" d="M143.1,19.5L142,18l0,0h-1.1v1.5h-1.3V14h2.4c0.5,0,0.9,0.1,1.3,0.2s0.6,0.4,0.8,0.7s0.3,0.7,0.3,1.1
			c0,0.4-0.1,0.8-0.3,1.1c-0.2,0.3-0.5,0.5-0.8,0.7l1.2,1.8h-1.4V19.5z M142.8,15.2c-0.2-0.2-0.5-0.2-0.9-0.2h-1v1.9h1
			c0.4,0,0.7-0.1,0.9-0.3c0.2-0.2,0.3-0.4,0.3-0.7S143,15.4,142.8,15.2z"/>
		<path class="st27" d="M150.4,19.5v-3.3l-1.6,2.7h-0.6l-1.6-2.7v3.3h-1.2V14h1.1l2.1,3.4l2-3.4h1.1v5.5H150.4z"/>
	</g>
	<g>
		<path class="st27" d="M95.3,42.7h-2.6l-0.5,1.2h-1.3l2.5-5.5h1.3l2.5,5.5h-1.3L95.3,42.7z M94.9,41.8L94,39.6l-0.9,2.1h1.8V41.8z"
			/>
		<path class="st27" d="M102.7,43.9v-3.3l-1.6,2.7h-0.6l-1.6-2.7v3.3h-1.2v-5.5h1.1l2.1,3.4l2-3.4h1.1v5.5H102.7z"/>
		<path class="st27" d="M105.8,43.8c-0.4-0.1-0.7-0.3-1-0.5l0.4-1c0.2,0.2,0.5,0.3,0.8,0.4c0.3,0.1,0.7,0.2,1,0.2
			c0.4,0,0.6-0.1,0.8-0.2c0.2-0.1,0.3-0.3,0.3-0.4c0-0.1-0.1-0.2-0.2-0.3s-0.2-0.2-0.4-0.2c-0.2-0.1-0.4-0.1-0.7-0.2
			c-0.4-0.1-0.8-0.2-1-0.3c-0.3-0.1-0.5-0.3-0.7-0.5s-0.3-0.5-0.3-0.9c0-0.3,0.1-0.6,0.3-0.9c0.2-0.3,0.4-0.5,0.8-0.6
			c0.4-0.2,0.8-0.2,1.3-0.2c0.4,0,0.7,0,1,0.1s0.6,0.2,0.9,0.4l-0.4,1c-0.5-0.3-1-0.4-1.5-0.4c-0.4,0-0.6,0.1-0.8,0.2
			c-0.2,0.1-0.3,0.3-0.3,0.5s0.1,0.3,0.3,0.4c0.2,0.1,0.5,0.2,0.9,0.3s0.8,0.2,1,0.3s0.5,0.3,0.7,0.5s0.3,0.5,0.3,0.9
			c0,0.3-0.1,0.6-0.3,0.9c-0.2,0.3-0.4,0.5-0.8,0.6c-0.4,0.2-0.8,0.2-1.3,0.2C106.6,44,106.2,44,105.8,43.8z"/>
	</g>
	<g>
		<path class="st27" d="M183.3,23h2.5c0.6,0,1.1,0.1,1.6,0.3c0.5,0.2,0.8,0.6,1.1,1s0.4,0.9,0.4,1.5s-0.1,1-0.4,1.5s-0.6,0.7-1.1,1
			c-0.5,0.2-1,0.3-1.6,0.3h-2.5V23z M185.7,27.5c0.6,0,1-0.2,1.3-0.5s0.5-0.7,0.5-1.3s-0.2-0.9-0.5-1.3c-0.3-0.3-0.8-0.5-1.3-0.5
			h-1.2v3.4h1.2V27.5z"/>
		<path class="st27" d="M194.8,28.6v-3.3l-1.6,2.7h-0.6l-1.6-2.7v3.3h-1.2V23h1.1l2.1,3.4l2-3.4h1.1v5.5h-1.3V28.6z"/>
		<path class="st27" d="M197.9,28.5c-0.4-0.1-0.7-0.3-1-0.5l0.4-1c0.2,0.2,0.5,0.3,0.8,0.4s0.7,0.2,1,0.2c0.4,0,0.6-0.1,0.8-0.2
			s0.3-0.3,0.3-0.4s-0.1-0.2-0.2-0.3c-0.1-0.1-0.2-0.2-0.4-0.2c-0.2-0.1-0.4-0.1-0.7-0.2c-0.4-0.1-0.8-0.2-1-0.3
			c-0.3-0.1-0.5-0.3-0.7-0.5s-0.3-0.5-0.3-0.9c0-0.3,0.1-0.6,0.3-0.9s0.4-0.5,0.8-0.6c0.4-0.2,0.8-0.2,1.3-0.2c0.4,0,0.7,0,1,0.1
			s0.6,0.2,0.9,0.4l-0.4,1c-0.5-0.3-1-0.4-1.5-0.4c-0.4,0-0.6,0.1-0.8,0.2s-0.3,0.3-0.3,0.5s0.1,0.3,0.3,0.4s0.5,0.2,0.9,0.3
			c0.4,0.1,0.8,0.2,1,0.3s0.5,0.3,0.7,0.5s0.3,0.5,0.3,0.9c0,0.3-0.1,0.6-0.3,0.9s-0.4,0.5-0.8,0.6s-0.8,0.2-1.3,0.2
			C198.7,28.7,198.3,28.6,197.9,28.5z"/>
	</g>
	<g>
		<path class="st27" d="M214.3,62.6c0.4,0.2,0.6,0.4,0.8,0.7s0.3,0.7,0.3,1.1s-0.1,0.8-0.3,1.1c-0.2,0.3-0.5,0.5-0.8,0.7
			s-0.8,0.2-1.3,0.2h-1.1v1.5h-1.3v-5.5h2.4C213.5,62.4,213.9,62.5,214.3,62.6z M213.8,65.1c0.2-0.2,0.3-0.4,0.3-0.7
			c0-0.3-0.1-0.5-0.3-0.7s-0.5-0.2-0.9-0.2h-1v1.9h1C213.3,65.3,213.6,65.3,213.8,65.1z"/>
		<path class="st27" d="M221.3,67.9v-3.3l-1.6,2.7h-0.6l-1.6-2.7v3.3h-1.2v-5.5h1.1l2.1,3.4l2-3.4h1.1v5.5H221.3z"/>
		<path class="st27" d="M224.4,67.8c-0.4-0.1-0.7-0.3-1-0.5l0.4-1c0.2,0.2,0.5,0.3,0.8,0.4s0.7,0.2,1,0.2c0.4,0,0.6-0.1,0.8-0.2
			s0.3-0.3,0.3-0.4s-0.1-0.2-0.2-0.3c-0.1-0.1-0.2-0.2-0.4-0.2c-0.2-0.1-0.4-0.1-0.7-0.2c-0.4-0.1-0.8-0.2-1-0.3
			c-0.3-0.1-0.5-0.3-0.7-0.5s-0.3-0.5-0.3-0.9c0-0.3,0.1-0.6,0.3-0.9c0.2-0.3,0.4-0.5,0.8-0.6c0.4-0.2,0.8-0.2,1.3-0.2
			c0.4,0,0.7,0,1,0.1s0.6,0.2,0.9,0.4l-0.4,1c-0.5-0.3-1-0.4-1.5-0.4c-0.4,0-0.6,0.1-0.8,0.2c-0.2,0.1-0.3,0.3-0.3,0.5
			c0,0.2,0.1,0.3,0.3,0.4s0.5,0.2,0.9,0.3c0.4,0.1,0.8,0.2,1,0.3s0.5,0.3,0.7,0.5s0.3,0.5,0.3,0.9c0,0.3-0.1,0.6-0.3,0.9
			s-0.4,0.5-0.8,0.6s-0.8,0.2-1.3,0.2C225.2,68,224.8,68,224.4,67.8z"/>
	</g>
</g>
</svg>
