<?xml version="1.0" encoding="utf-8"?>
<!-- Generator: Adobe Illustrator 25.2.3, SVG Export Plug-In . SVG Version: 6.00 Build 0)  -->
<svg version="1.1" id="Layer_1" xmlns="http://www.w3.org/2000/svg" xmlns:xlink="http://www.w3.org/1999/xlink" x="0px" y="0px"
	 viewBox="0 0 150 40" style="enable-background:new 0 0 150 40;" xml:space="preserve">
<style type="text/css">
	.st0{fill:#DD2B2E;}
</style>
<g id="Group_2732" transform="translate(0 0)">
	<g id="Group_328">
		<path id="Path_472" d="M27.3,14.9c0,7.3-4.9,12.2-13.9,12.2H8.3v8.8c0,1.2-0.6,1.5-1.5,1.5H1.5c-1,0-1.5-0.3-1.5-1.5V4.2
			c0-1,0.3-1.5,1.5-1.5h11.9C22.5,2.6,27.3,7.6,27.3,14.9z M19.3,15c0-2.7-1.8-5-5.9-5H8.3v9.9h5.1C17.5,19.9,19.3,17.7,19.3,15
			L19.3,15z"/>
		<path id="Path_473" d="M57.3,37.4h-5.5c-1.2,0-1.6-0.3-2-1.6l-1.5-4.2H35.4l-1.5,4.2c-0.4,1.3-0.8,1.6-2,1.6h-5.5
			c-1.2,0-1.2-0.8-0.9-1.5L37.2,4.3c0.2-1,1.1-1.7,2.2-1.6h5.1c1.2,0,1.7,0.5,2.2,1.6l11.7,31.6C58.5,36.5,58.5,37.4,57.3,37.4z
			 M45.8,24.2l-4-11.7l-4,11.7H45.8z"/>
		<path id="Path_474" d="M81.9,4.2v4.4c0,1-0.3,1.5-1.5,1.5h-8.1v25.8c0,1.2-0.6,1.5-1.5,1.5h-5.2c-1,0-1.5-0.3-1.5-1.5V10.1h-8.1
			c-1.2,0-1.5-0.6-1.5-1.5V4.2c0-1,0.3-1.5,1.5-1.5h24.5C81.6,2.6,81.9,3.2,81.9,4.2z"/>
		<path id="Path_475" d="M113.3,37.4H107c-1.1,0-2.2-0.6-2.6-1.6l-5.7-8.5c-0.5-0.8-0.7-1.8-0.6-2.7v-4.2c0-1,0.3-1.5,1.5-1.5h1.1
			c2.6,0,5-1.8,5-4.3c0-2.7-2.1-4.5-4.9-4.5h-7v25.8c0,1.2-0.6,1.5-1.5,1.5h-5.2c-0.9,0-1.5-0.3-1.5-1.5V4.2c0-0.9,0.3-1.5,1.5-1.5
			h13.3c5.8,0,8.3,1.2,10.5,3.4c2.1,2.2,3.2,5.2,3.1,8.3c-0.1,4.7-3,8.9-7.3,10.5l7.4,10.8C114.5,36.4,114.3,37.4,113.3,37.4z"/>
		<g id="Group_327" transform="translate(139.264 0.314)">
			<path id="Path_476" d="M5.5,3h-1V2.6H7V3h-1v3H5.5L5.5,3z"/>
			<path id="Path_477" d="M10.2,4.6c0-0.5-0.1-1.1-0.1-1.5h0C10,3.5,9.9,3.9,9.7,4.4L9.1,6H8.8L8.2,4.4C8.1,3.9,7.9,3.5,7.8,3.1h0
				c0,0.4,0,1-0.1,1.5L7.7,6.1H7.2l0.2-3.4h0.6l0.6,1.7C8.8,4.7,8.9,5.1,9,5.4h0c0.1-0.3,0.2-0.7,0.4-1.2L10,2.6h0.6l0.2,3.4h-0.4
				L10.2,4.6z"/>
		</g>
		<path id="Path_478" class="st0" d="M124.3,37.3h16.8l-8.4-24.8L124.3,37.3z"/>
		<path id="Path_479" d="M149,35.9L137.3,4.3c-0.5-1.1-1-1.6-2.2-1.6h-5.1c-1-0.1-1.9,0.6-2.2,1.6l-11.7,31.6
			c-0.3,0.6-0.3,1.5,0.9,1.5h7.1l8.4-24.8l8.4,24.8h7C149.3,37.3,149.3,36.5,149,35.9z"/>
	</g>
</g>
</svg>
